<?xml version="1.0" encoding="utf-8"?>
<!DOCTYPE svg PUBLIC "-//W3C//DTD SVG 1.0//EN" "http://www.w3.org/TR/2001/REC-SVG-20010904/DTD/svg10.dtd">
<svg version="1.0" xmlns="http://www.w3.org/2000/svg" width="764px" height="764px" viewBox="0 0 764 764" preserveAspectRatio="xMidYMid meet">
 <g fill="#000000">
  <path d="M346.75 763.25 c-54.30 -4.70 -108.95 -21.85 -156.25 -49.15 -29.90 -17.30 -55.10 -36.65 -79.75 -61.35 -25 -25 -44.25 -50.10 -61.35 -80 -25.30 -44.20 -40.40 -89.40 -47.55 -142.25 l-1.55 -11.75 -0.05 -36.75 0 -36.75 1.60 -12 c2.90 -21.55 6.80 -40.55 12.10 -58.75 17.95 -62.25 51 -118 97.35 -164.25 50.65 -50.55 114.50 -85.90 183.95 -101.70 11.95 -2.70 23.30 -4.70 37.95 -6.70 l12.05 -1.60 36.50 0 36.50 0 10.75 1.40 c20.90 2.70 41.30 6.85 58.80 11.85 54.15 15.50 103.60 42.35 146.20 79.40 9.65 8.45 28.75 27.50 37.05 37.10 53.25 61.40 85.35 137.15 92.20 217.50 1.05 12.05 1.05 56.75 0 68.85 -7.60 89.10 -46.60 172.90 -110.05 236.35 -63.90 63.95 -147.65 103 -236.95 110.55 -11.45 0.95 -58.15 0.95 -69.50 0z m62 -16.75 c20.15 -1.65 35.55 -3.95 53.50 -8.05 67.55 -15.45 128.40 -49.15 177.75 -98.45 36.25 -36.30 63.80 -78.25 82.35 -125.50 33.85 -86.10 33.55 -181.55 -0.85 -267.50 -35.20 -88 -103.40 -159.20 -190 -198.50 -38.70 -17.60 -80.65 -28.15 -125 -31.60 -11.90 -0.90 -40.95 -0.75 -52.65 0.30 -56.20 4.95 -106.45 20.55 -153.10 47.45 -29 16.70 -53.05 35.15 -77 59.10 -23.95 23.90 -42.25 47.80 -59.10 77 -27.35 47.45 -43.20 99.35 -47.70 156.50 -0.95 11.85 -0.85 39.75 0.25 52.20 4.15 49.10 16.40 92.75 38.05 136.05 26.30 52.50 66.20 99 115 134 54.10 38.80 118.45 62 186 67.20 14.05 1.05 38.20 0.95 52.50 -0.20z"/>
  <path d="M336.05 732.65 l-11.65 -0.15 0.20 -2.65 c0.40 -4.75 2.45 -7.95 9.75 -15.40 3.65 -3.75 6.85 -7.40 7.15 -8.15 0.85 -2.25 -1.05 -4.65 -3.25 -4.10 -1.30 0.35 -2.75 2.55 -2.75 4.30 0 0.90 -0.30 1 -3.45 1 -1.90 0 -4.15 -0.15 -5 -0.30 -1.50 -0.30 -1.55 -0.40 -1.55 -2.95 0 -4.75 2.55 -8.75 6.60 -10.45 2.20 -0.95 10.10 -1.10 13.05 -0.25 4.80 1.30 7.10 5.45 6.75 12.15 -0.20 3.70 -0.40 4.55 -1.95 7.05 -0.95 1.60 -3.35 4.30 -5.45 6.15 -2.05 1.80 -3.95 3.50 -4.25 3.75 -0.30 0.30 1.85 0.40 5.50 0.30 l6 -0.20 0 5 0 5 -2 0 c-1.10 0.05 -7.25 -0.05 -13.70 -0.10z"/>
  <path d="M381.70 732.30 c-0.55 -1.45 0.10 -5.05 1.45 -8 1 -2.15 3 -4.55 8.05 -9.75 7 -7.15 8.20 -8.90 7.30 -10.55 -0.70 -1.35 -2.35 -2.10 -3.50 -1.75 -1.15 0.35 -2.50 2.70 -2.50 4.25 0 0.90 -0.30 1 -3.10 1 -1.75 0 -4 -0.15 -5 -0.30 -1.90 -0.35 -1.90 -0.35 -1.90 -2.70 0 -5 2.65 -9.20 6.80 -10.80 1.65 -0.60 3.40 -0.75 7.65 -0.60 5.15 0.15 5.60 0.25 7.65 1.65 1.25 0.90 2.65 2.45 3.30 3.75 1.05 2 1.15 2.80 1 6.85 -0.20 4.20 -0.35 4.80 -2 7.50 -1.05 1.70 -3.40 4.30 -5.80 6.40 l-4.05 3.50 5.95 0.15 6 0.15 0 4.70 0 4.75 -10.85 0 c-6 0 -12.10 0.15 -13.50 0.30 -2.20 0.30 -2.70 0.20 -2.95 -0.50z"/>
  <path d="M360.55 731.40 c-4.70 -2.30 -6.55 -7.45 -6.55 -18.30 0 -10.55 1.60 -15.80 5.55 -18.45 1.90 -1.25 2.60 -1.40 7.15 -1.55 4.45 -0.15 5.30 0 7.30 1 4.85 2.50 6.50 7.25 6.50 18.65 0 7.65 -0.50 10.85 -2.25 14.25 -2.15 4.30 -4.55 5.50 -10.85 5.50 -3.75 0 -5.05 -0.20 -6.85 -1.10z m8.70 -9.95 c0.85 -1.45 1 -2.60 1 -8.20 0 -6.95 -0.60 -9.90 -2.30 -10.80 -1.25 -0.65 -1.80 -0.30 -2.80 1.95 -0.55 1.35 -0.80 3.50 -0.85 8.10 -0.05 6.55 0.55 9.60 2.10 10.50 1.20 0.65 1.70 0.40 2.85 -1.55z"/>
  <path d="M417.20 731.25 c-3.90 -1.95 -6.20 -5.70 -6.20 -10.20 l0 -2.40 2.30 -0.35 c1.30 -0.15 3.40 -0.30 4.70 -0.30 2.25 0 2.45 0.10 2.95 1.60 0.65 1.80 2.40 3.90 3.30 3.90 0.30 0 1.15 -0.65 1.90 -1.40 1.75 -1.80 1.80 -4.20 0.15 -5.85 -1.05 -1.05 -1.50 -1.20 -3.75 -0.90 l-2.55 0.30 0.05 -3.20 c0.05 -4.70 0.45 -5.65 2.30 -5.85 0.85 -0.10 2.05 -0.70 2.65 -1.35 1.15 -1.20 1.15 -1.25 0.25 -2.25 -0.50 -0.55 -1.20 -1 -1.55 -1 -0.90 0 -2.70 2.45 -2.70 3.65 0 0.95 -0.25 1 -3.85 0.70 -5.35 -0.35 -5.65 -0.55 -5.65 -3.05 0 -2.25 1.80 -6.55 3.30 -7.90 1.95 -1.70 4.55 -2.40 9.20 -2.40 6.20 0 9.40 1.45 11.30 5.10 1.05 2.05 0.95 8.75 -0.25 10.65 l-0.90 1.50 1.40 1.60 c1.85 2.15 2.60 5.15 2.30 9.30 -0.25 4.10 -2.05 7.30 -5.30 9.60 -2 1.40 -2.45 1.50 -7.45 1.65 -4.95 0.15 -5.55 0.05 -7.90 -1.15z"/>
  <path d="M297.35 720 c-4.35 -1.35 -6.85 -5.35 -6.85 -10.85 0 -5.35 0.40 -6.60 3 -9.20 2.95 -2.95 6.45 -3.90 11.30 -3.10 5.30 0.90 8.15 3.70 9.25 9.05 1.10 5.30 -0.70 10.35 -4.60 12.95 -1.85 1.25 -2.65 1.40 -6.40 1.50 -2.35 0.05 -4.95 -0.10 -5.70 -0.35z"/>
  <path d="M453.60 720.15 c-1.90 -0.35 -5.90 -4.60 -6.55 -6.90 -1.70 -6.20 0.20 -12.25 4.65 -15 2.20 -1.35 2.90 -1.50 6.50 -1.50 5.35 0 8.35 1.40 10.55 5 1.40 2.25 1.50 2.75 1.50 6.95 -0.05 4.95 -0.60 6.50 -3.10 8.90 -2.20 2.10 -4.65 2.90 -8.75 2.85 -2 -0.05 -4.20 -0.20 -4.80 -0.30z"/>
  <path d="M357.10 681.20 c-65.90 -5.50 -125.15 -30.65 -174.10 -73.75 -51.45 -45.35 -85.45 -106.05 -96.95 -173.05 -3.25 -18.75 -4.20 -30.95 -4.20 -52.40 0 -18.40 0.45 -26.25 2.40 -41 11.55 -86.75 59.70 -162.95 133.50 -211.30 32.35 -21.15 71.30 -36.55 109.75 -43.40 18.65 -3.35 32.95 -4.50 54.75 -4.50 21.85 0.05 36.60 1.30 55.15 4.70 59.90 11.05 114.05 39.55 157.30 82.80 46.45 46.50 75.90 106 84.75 171.45 3.40 24.85 3.40 55.75 0.10 81.50 -12 92.60 -67.20 174.50 -149.10 221.15 -8.65 4.95 -26.15 13.35 -35.25 17.05 -28.90 11.55 -58.10 18.35 -89.70 20.80 -12.05 0.95 -37 0.90 -48.40 -0.05z m43.65 -14.95 c24.60 -1.85 46.70 -6.20 69.50 -13.60 15.55 -5.05 38.65 -15.40 53.30 -23.90 64.60 -37.50 112.05 -98.20 132.45 -169.50 10.70 -37.60 13.55 -75.50 8.50 -114 -7.40 -56.25 -31.80 -109.50 -69.80 -152.25 -5.75 -6.50 -19.35 -20.05 -25.70 -25.60 -38.75 -33.90 -86.50 -56.90 -137.40 -66.15 -27.10 -4.90 -55.80 -5.75 -83.10 -2.45 -56.65 6.85 -110.75 31 -153.75 68.65 -51.80 45.40 -85.45 107.30 -95.20 175.30 -3.30 23 -3.60 50.10 -0.75 72.50 7.35 57.95 30.75 110.25 68.85 153.95 9.90 11.35 26.75 27.35 38.60 36.60 40.80 31.90 88.50 52 139.25 58.70 18.85 2.45 37.95 3.10 55.25 1.75z"/>
  <path d="M423.50 635 c-7.30 -0.50 -13.65 -1.45 -23.95 -3.75 -22.50 -5 -33.45 -10.30 -51.30 -25 -16.70 -13.75 -26.70 -28.90 -34.15 -51.75 -6.70 -20.40 -6.80 -44.55 -0.35 -67.50 5.90 -20.95 13.25 -35.45 23.15 -45.70 4.85 -5 15.85 -13.60 25 -19.50 14.80 -9.50 25.75 -13.55 40.10 -14.80 9.35 -0.80 34.60 -0.65 39.70 0.25 4.65 0.80 4.40 0.70 19 6.70 14.30 5.80 14.80 6.20 21.70 15.15 4.85 6.35 9.65 14.90 13.40 24 3.60 8.80 5.10 11.25 9.45 15.65 l4 4 0.25 -8.50 0.25 -8.50 2.75 -0.25 2.75 -0.25 1.85 -5.30 c2.20 -6.55 3.40 -8.45 8.60 -13.90 11.30 -12 14.05 -17.65 12.35 -25.30 l-0.60 -2.65 -4.10 -0.25 c-2.85 -0.15 -5.05 -0.65 -7.25 -1.60 -1.75 -0.70 -4.35 -1.50 -5.80 -1.75 -1.50 -0.25 -3.85 -1.05 -5.30 -1.75 -5.10 -2.60 -12.90 -11.95 -15.10 -18.10 -0.50 -1.55 -0.90 -4 -0.90 -5.90 0 -5.40 2.25 -8.55 7.95 -11.15 2.35 -1.10 3.15 -1.20 6.80 -0.95 5.60 0.30 8.15 1.60 15.25 7.60 10 8.50 13.75 11.85 14.30 12.95 0.30 0.60 0.70 2.50 0.90 4.20 0.15 1.75 0.45 3.40 0.60 3.70 0.55 0.85 3.10 -2.10 4.25 -4.90 0.75 -1.90 1.40 -2.80 2.15 -2.95 0.55 -0.10 2.50 -0.45 4.25 -0.70 4.55 -0.75 6.90 -2.05 12 -6.70 8.20 -7.50 16.15 -18.65 18.55 -26 0.85 -2.75 -0.05 -6.95 -2.75 -12.70 -2.80 -5.95 -4.95 -9.20 -14.90 -22.70 -6.55 -8.90 -11.20 -14.40 -22.40 -26.70 -17.20 -18.85 -24.35 -26.05 -34.45 -34.70 -9.30 -8 -15.85 -12.75 -21.25 -15.45 -11.80 -5.95 -40.10 -13.80 -55.25 -15.35 -16.55 -1.70 -17.60 -2.30 -23 -12.70 -2.90 -5.60 -4.25 -7.60 -6.50 -9.75 -5.95 -5.70 -17.25 -9.40 -28.50 -9.40 -8.85 0.05 -16.75 2.75 -23.10 7.95 -13 10.60 -18.45 24.55 -15.35 39.15 0.65 3.05 7.05 19.95 10.05 26.60 1.60 3.55 2.40 6.05 2.40 7.40 0 1.85 -0.10 2 -1.35 2 -3.50 0 -10.85 -2.90 -15.50 -6.05 -2.80 -1.90 -7.55 -5.90 -12.05 -10.10 l-3.15 -3 -1.15 1.10 c-0.60 0.55 -1.25 1.05 -1.45 1.05 -0.45 0 -7.50 4.30 -20.10 12.35 -6.05 3.85 -14.60 9.05 -19 11.60 -6.70 3.90 -20.15 12.10 -40.55 24.70 -2.20 1.40 -4.55 3.25 -5.15 4.15 -1.35 1.95 -2.55 6.20 -2.55 9 0 3.15 -0.55 5.15 -1.45 5.45 -0.45 0.15 -2.65 2 -4.90 4.15 -3.90 3.70 -4.20 4.15 -6.85 10.15 -3.85 8.70 -8.80 22.20 -8.80 24 0 2.70 1.65 3.70 12.15 7.70 3.90 1.45 9.35 3.70 12.10 5 2.75 1.30 8.85 3.90 13.50 5.85 4.70 1.95 10.15 4.20 12.20 5.05 l3.70 1.55 -0.35 8 c-0.20 4.45 -0.70 11 -1.05 14.55 -1.75 15.45 -0.15 32.05 4.05 42.60 2.75 6.95 7.30 12.50 11.85 14.40 1 0.40 3.45 1 5.45 1.25 2 0.30 4.85 1 6.25 1.65 l2.65 1.10 0 3.25 c0 1.80 -0.20 3.55 -0.45 3.95 -0.85 1.30 -32.15 -0.05 -40.45 -1.75 -0.90 -0.20 -1.85 -0.75 -2.10 -1.25 -0.95 -1.70 -0.55 -7.50 0.75 -11.70 2.75 -8.85 2.60 -12.05 -0.75 -19.45 -2.10 -4.65 -6 -20 -6.35 -25.05 -0.15 -2.20 0 -5.45 0.30 -7.20 0.45 -2.75 0.40 -3.40 -0.35 -4.65 -1.55 -2.65 -11.90 -6.85 -16.90 -6.90 -1.15 0 -1.70 0.30 -2.15 1.30 -0.55 1.20 -0.30 1.55 5.10 7.10 3.15 3.20 7.20 7.85 9 10.30 3.25 4.30 3.35 4.55 3.35 7.40 0 1.60 -0.40 6.15 -0.85 10.05 -1.20 10.20 -1.20 27.65 0 33.35 1.85 8.75 4.90 16.15 10.15 24.80 1.20 1.95 3.10 5.60 4.30 8 1.70 3.60 2.70 5 5.35 7.45 8 7.35 9.05 8.85 9.05 13 0 4.60 -1.75 5.75 -8.70 5.75 -10.45 0 -16.65 -4.35 -24.90 -17.45 l-3.85 -6.10 0.30 -7.85 0.25 -7.85 -3.25 -7.50 c-1.75 -4.10 -4.35 -9.95 -5.75 -13 -4.40 -9.50 -4.60 -11.20 -3.30 -31.25 l0.30 -4.80 -6.15 -2.90 c-8.80 -4.10 -8.50 -4.10 -15.20 -0.05 -1.25 0.80 -2.75 1.25 -4.10 1.25 -2 0 -2.15 -0.10 -4.05 -3.15 -1.10 -1.75 -2.90 -5 -4.05 -7.25 -1.15 -2.30 -2.30 -4 -2.60 -3.85 -0.90 0.60 -3.30 5.95 -6.45 14.50 -1.75 4.70 -5.85 14.90 -9.15 22.75 -10.75 25.70 -11.95 28.60 -17.30 42.75 l-5.30 14 -2.35 0.15 c-3.30 0.20 -5.40 -0.95 -5.40 -2.95 0 -1.85 3.80 -12.50 7.85 -22.20 1.65 -3.85 5.10 -12.50 7.65 -19.25 4.20 -11.15 10.15 -25.35 15 -35.80 1 -2.20 4.15 -8.05 6.90 -13 2.80 -4.95 5.35 -9.70 5.65 -10.65 0.90 -2.55 0.10 -3 -6.15 -3.35 l-5.25 -0.35 -0.65 1.95 c-0.35 1.05 -1.30 3 -2.10 4.25 -1.30 2.15 -1.40 2.70 -1.40 7.40 0 4.10 -0.20 5.45 -1 7.05 -1.15 2.25 -3.15 3.50 -5.70 3.50 -1.75 0 -1.80 -0.10 -2.60 -2.85 -0.45 -1.60 -1.25 -3.75 -1.75 -4.75 -1.60 -3.20 -2.45 -3.40 -15.55 -3.50 -6.40 -0.10 -12.85 0.05 -14.30 0.30 -2.20 0.35 -3.75 0.20 -9 -0.95 -3.50 -0.80 -6.65 -1.65 -6.95 -1.90 -0.35 -0.25 -0.65 -1.55 -0.65 -2.90 0 -2.35 0.05 -2.40 1.65 -2.70 0.90 -0.20 3.75 -0.20 6.35 -0.10 9.40 0.50 20.60 1.30 22.55 1.60 2.90 0.50 10.25 -0.65 13.55 -2.10 2.55 -1.15 3.05 -1.60 4.60 -4.40 1.55 -2.85 4.30 -10.70 4.30 -12.40 0 -0.80 -4.20 -8 -5.15 -8.75 -1.10 -0.90 -7.60 -1.60 -14.70 -1.60 -9.50 0 -15.10 -1.45 -17.95 -4.60 -3 -3.25 -5.55 -11.90 -7.50 -25.65 -1.15 -7.75 -1.30 -28.95 -0.25 -33.50 0.75 -3.40 2.50 -7.10 3.85 -8.30 3.25 -2.90 9.75 -4.75 23.85 -7 5.30 -0.80 10.95 -1.85 12.55 -2.25 4.15 -1.10 9.45 -3.85 10.55 -5.55 3.25 -5.10 7.60 -10.30 9.30 -11.15 2.35 -1.25 5.50 -1.25 9.70 -0.15 4.50 1.20 5.20 0.75 7.75 -4.70 1.15 -2.40 2.55 -5.40 3.15 -6.65 1.65 -3.45 4.70 -6.25 7.75 -6.95 7.10 -1.75 16.95 3.05 20.70 10.05 1 1.85 1.15 2.80 1.10 7.15 -0.05 5.55 -0.95 8.40 -3.85 12.70 -1.85 2.80 -10 10.55 -11.05 10.55 -1.15 0 -3.75 2.45 -4.80 4.45 -1.25 2.50 -2 6.90 -2 11.80 0 4.15 0.40 5.05 2.85 6.45 1.75 1 4.60 -2.80 8.30 -11.10 4.65 -10.40 6.65 -12.65 11.70 -13.35 2.95 -0.45 5.15 -1.60 16.50 -8.70 21.10 -13.25 38.65 -23.90 56.15 -33.95 9.30 -5.35 17.05 -10.70 16.80 -11.55 -0.15 -0.45 -0.50 -1.80 -0.80 -3.05 -0.35 -1.25 -1.15 -3.15 -1.75 -4.25 -0.65 -1.10 -1.75 -3.55 -2.45 -5.40 -1.60 -4.25 -3.80 -8.25 -4.80 -8.65 -1.70 -0.75 -12.45 -0.75 -18.05 -0.05 -9.30 1.25 -30.20 7 -45.95 12.75 -17.70 6.40 -34.20 11.80 -39.25 12.85 -6.85 1.45 -15.15 1.55 -21.20 0.25 -6.40 -1.30 -10 -2.95 -12.25 -5.55 -2.30 -2.70 -2.95 -5.45 -2.70 -10.80 0.20 -3.50 0.55 -5.20 1.80 -8.20 4.40 -10.45 11.60 -20.05 22.85 -30.75 4.05 -3.80 10.80 -10.20 14.95 -14.20 12.30 -11.85 32.05 -26.05 48.45 -34.85 13.20 -7.05 20.85 -10.35 33.10 -14.30 3.85 -1.25 9 -3.10 11.40 -4.10 4.20 -1.80 4.80 -2.25 12.65 -9.80 9.10 -8.70 12.20 -10.75 17.35 -11.30 l2.85 -0.30 0 1.70 c0 0.95 -0.55 3.30 -1.25 5.20 -1.60 4.60 -1.60 5.25 0.15 5.25 3 0 17.20 -1.60 22.85 -2.60 8.65 -1.50 27.15 -1.80 40.80 -0.70 25.75 2.15 48.20 6.45 65.70 12.65 17.95 6.35 33.70 13 42.25 17.75 5.55 3.15 9.45 5.70 24 15.65 2.05 1.40 7.35 5 11.75 8 9.40 6.35 11.70 8.15 18.95 14.90 10.50 9.80 20.50 21 29.75 33.35 4.80 6.45 10 13.80 11.55 16.25 1.55 2.50 4.80 7.50 7.25 11.20 5.60 8.55 12.20 22.50 19.75 41.80 13.30 33.95 19.10 85.55 13.70 121.95 -0.65 4.65 -1.45 9.35 -1.70 10.50 -0.25 1.15 -1.25 6.55 -2.25 12.05 -1 5.50 -2.90 14.30 -4.20 19.50 -1.35 5.25 -2.90 11.40 -3.45 13.75 -2 8.45 -10.50 28.15 -18.60 43 -7 12.95 -18.50 30.15 -26.45 39.75 -5.20 6.25 -19.70 21.70 -23.45 24.90 -1.85 1.65 -8.50 7.30 -14.85 12.60 -9.80 8.20 -12.75 10.35 -19.75 14.50 -19.80 11.65 -41.90 21.20 -58.75 25.45 -6.60 1.65 -15.55 3.10 -23.10 3.75 -6.50 0.60 -8.30 0.60 -17.15 0.05z m1.15 -108.20 c2 -0.85 4.50 -3.50 5.35 -5.70 1.55 -3.95 -2.85 -10.60 -7 -10.60 -0.55 0 -1.85 0.45 -2.90 0.95 -3.90 2 -6.55 6.25 -5.55 8.90 0.95 2.60 3.05 5.10 5.10 6.10 2.50 1.25 2.90 1.25 5 0.35z m-219.95 -302.75 c0.85 -0.90 0.85 -1 -0.20 -2.05 -1.05 -1.05 -1.15 -1.05 -2.05 -0.20 -1.10 1 -1.20 1.75 -0.35 2.60 0.85 0.85 1.60 0.75 2.60 -0.35z"/>
  <path d="M485.50 286.90 c-0.70 -0.25 -14.95 -4.35 -31.75 -9.10 l-30.50 -8.65 -0.15 -1.60 c-0.25 -2.30 0.95 -3.40 4.85 -4.55 6.15 -1.85 12.80 -2.55 27.30 -2.85 11.85 -0.25 14.60 -0.15 18.05 0.55 8.15 1.65 10.75 3.65 13.20 10.25 2.15 5.90 4 12.70 4 14.75 0 1.75 -0.05 1.80 -1.85 1.75 -1.05 -0.05 -2.45 -0.25 -3.15 -0.55z"/>
  <path d="M377.25 280.30 c-5.35 -1.70 -11.45 -7.85 -14.65 -14.80 -2.60 -5.70 -3.35 -10.20 -3.30 -19.75 0 -7.45 0.20 -9.15 1.35 -13.60 3.65 -14.35 11.05 -21.15 23.10 -21.15 5.10 0 9.10 1.05 12.90 3.35 4.75 2.85 7.55 7.70 7.25 12.40 l-0.15 2.45 -5.10 1.55 c-6.45 2.05 -9 3.55 -13.40 8 -5.80 5.85 -8.50 11.80 -8.40 18.50 0.10 3.10 1.90 9.55 4.70 16.65 0.80 2 1.45 4.40 1.45 5.35 0 1.70 -0.05 1.75 -1.85 1.70 -1.05 0 -2.80 -0.30 -3.90 -0.65z"/>
  <path d="M639.40 623.25 c-1.05 -0.90 -1.90 -2.10 -1.90 -2.60 -0.05 -0.70 -0.45 -0.45 -1.70 1 -2.80 3.15 -3.70 2.85 -11.95 -4.25 -14.80 -12.80 -15.35 -13.55 -15.35 -20.20 0 -4.90 1.20 -7.60 5.15 -11.80 3.85 -4 6.15 -5.10 11.10 -5.10 5.80 0 7.25 0.95 21.50 13.30 5.30 4.60 6 5.40 6.15 6.95 0.10 1.35 -0.20 2.15 -1.65 3.85 -1.75 2 -1.80 2.10 -0.65 2.10 0.65 0 2 0.70 3.05 1.55 1.60 1.30 1.85 1.80 1.85 3.65 0 2.80 -2.40 5.30 -5.05 5.30 -2.60 0 -5.45 -2.50 -5.45 -4.85 0 -1 0.45 -2.30 1.05 -3.05 1 -1.30 1 -1.35 0.10 -1.55 -0.50 -0.10 -4.75 -3.50 -9.50 -7.60 -4.70 -4.10 -9.35 -7.90 -10.30 -8.45 l-1.70 -1 -1.70 1.15 c-1.60 1.05 -3.95 4 -3.95 4.95 0 0.70 4.85 5.35 12.65 12.05 5.15 4.45 7.35 6.70 7.35 7.45 0 0.95 0.05 0.95 1.05 -0.30 1.50 -1.90 4.35 -1.80 7 0.30 2.65 2.10 2.70 4.10 0.15 6.90 -2.45 2.70 -4.60 2.75 -7.30 0.25z"/>
  <path d="M125.65 619.05 c-1.65 -1.90 -2.15 -2.90 -2.15 -4.25 0 -1.55 0.45 -2.10 4.25 -5.40 l4.25 -3.65 -9.10 -0.25 -9.05 -0.30 -2.90 -3.20 c-2.50 -2.75 -2.95 -3.55 -2.95 -5.20 l0 -1.90 8.50 0.35 c4.70 0.20 8.90 0.40 9.40 0.45 0.65 0.05 1.40 -1.95 3.90 -10.50 l3.05 -10.55 -16.30 4.15 c-8.95 2.30 -17.10 4.20 -18.10 4.20 -1.60 0 -1.95 -0.30 -3.90 -3.05 -1.75 -2.50 -2.10 -3.35 -1.95 -4.85 0.10 -1.40 2.75 -5.90 10.15 -17.45 l10 -15.60 1.85 -0.05 c1.70 0 2.05 0.25 3.90 2.75 2.60 3.55 2.65 5.30 0.20 9 -1.15 1.70 -1.65 2.95 -1.40 3.35 1.10 1.75 6.35 8.90 6.55 8.90 0.15 0 1.45 -0.35 2.95 -0.80 4.55 -1.30 5.60 -0.95 8.10 2.75 1.15 1.75 3.50 4.75 5.10 6.65 2.10 2.40 3 3.85 3 4.80 0 0.75 -1.10 4.75 -2.50 8.85 -1.35 4.10 -2.50 7.60 -2.50 7.80 0 0.20 0.95 0.45 2.10 0.55 2 0.20 2.30 0.05 6 -3.20 5 -4.40 6.35 -4.55 9.35 -0.95 1.65 1.95 2.05 2.85 2.05 4.35 0 1.90 -0.20 2.10 -13.05 13.20 -15.35 13.25 -15.30 13.20 -18.80 9.05z m-15.25 -49.30 c1.45 -0.45 2.60 -0.95 2.60 -1.15 -0.05 -0.20 -0.55 -0.95 -1.15 -1.70 l-1.10 -1.35 -1.65 2.50 c-0.85 1.35 -1.55 2.45 -1.45 2.45 0.10 0 1.35 -0.35 2.75 -0.75z"/>
  <path d="M650.60 588.65 c-2.10 -1.05 -4.05 -3.55 -4.40 -5.75 l-0.30 -1.65 -3.80 0.15 c-4.95 0.20 -7.65 -1.05 -9.85 -4.65 -1.35 -2.15 -1.50 -2.85 -1.50 -6.45 0 -4.85 0.35 -5.60 7.70 -16.05 6.90 -9.80 5.10 -10.05 23.10 2.75 13.10 9.30 14.20 10.20 14.35 11.65 0.10 1.30 -0.70 2.75 -4.50 8.15 -6.50 9.15 -7.75 10.60 -9.95 11.70 -2.45 1.30 -8.45 1.35 -10.85 0.15z m6.70 -10.05 c0.30 -0.20 1.60 -1.80 2.90 -3.60 l2.40 -3.25 -1.45 -1.10 c-0.75 -0.65 -1.55 -1.15 -1.70 -1.15 -0.55 0 -4.95 6.70 -4.95 7.55 0 1.50 1.60 2.40 2.80 1.55z m-9.05 -11.25 l2.75 -3.60 -1.90 -1.60 c-1 -0.90 -2.05 -1.55 -2.35 -1.50 -0.80 0.25 -5.70 7.50 -5.75 8.45 0 0.45 0.60 1.25 1.35 1.80 1.80 1.35 2.50 0.95 5.90 -3.55z"/>
  <path d="M668.95 553.70 c-15.80 -8.10 -17.20 -9.50 -17.20 -17.25 0 -4.05 0.15 -4.55 2.15 -8.60 2.60 -5.25 5.45 -8 9.15 -8.80 5.70 -1.25 7.05 -0.85 21.05 6.10 l11.40 5.60 0 2.20 c0 1.35 -0.40 2.85 -1.05 3.85 l-1.05 1.70 1.70 0 c0.90 0 2.55 0.50 3.65 1.15 2.55 1.45 2.85 3.25 1 6.80 -1.10 2.20 -1.45 2.55 -2.80 2.55 -0.80 0 -2.60 -0.55 -3.95 -1.25 -2.30 -1.15 -2.50 -1.40 -2.50 -3.05 0 -0.95 0.35 -2.40 0.75 -3.20 l0.80 -1.50 -1.65 0 c-1.05 0 -5.35 -1.90 -12.50 -5.50 -10.70 -5.40 -10.95 -5.50 -12.35 -4.75 -1.45 0.70 -3.15 3 -3.75 5.05 -0.55 1.85 2.35 3.90 13.50 9.55 8.45 4.25 10.70 5.60 10.70 6.40 0.05 0.75 0.30 0.50 1.05 -0.85 0.90 -1.70 1.15 -1.90 3 -1.90 1.10 0 2.90 0.45 3.95 1 1.80 0.95 2 1.20 2 3 0 1.10 -0.50 3 -1.10 4.25 -0.90 1.90 -1.35 2.25 -2.50 2.25 -1.40 0 -6.40 -2.20 -6.95 -3.10 -0.15 -0.25 -0.70 0.50 -1.25 1.60 -1.55 3.30 -3 2.95 -15.25 -3.30z"/>
  <path d="M74.85 547.70 c-4.45 -9.05 -4.60 -9.45 -4.80 -13.25 -0.10 -2.20 0 -4.50 0.15 -5.20 0.45 -1.85 3.25 -4.80 5.55 -5.80 2.90 -1.35 8.95 -1.30 11.15 0.05 2.05 1.25 1.95 1.25 2.30 -0.40 0.20 -0.75 1.55 -3.50 3.05 -6.10 l2.70 -4.75 -18.40 -0.15 -18.40 -0.10 -1.30 -3.40 c-2.40 -6.05 -3.15 -4.85 12.45 -19.55 12.55 -11.90 13.90 -13.05 15.50 -13.05 1.60 0 1.80 0.20 2.80 2.40 0.55 1.30 1.15 3.55 1.30 4.95 l0.20 2.65 -2.55 2.30 c-1.40 1.25 -2.55 2.55 -2.55 2.85 0 0.35 0.90 2.90 2.05 5.75 l2.05 5.10 4.40 0 4.35 0 0.90 2.40 c0.50 1.30 1.95 4.55 3.30 7.20 3.25 6.50 3.25 7.10 -0.80 14.45 -4.10 7.50 -4.40 8.20 -3.70 9.60 0.35 0.60 0.65 1.15 0.70 1.25 0.10 0.10 2.55 -1.10 5.45 -2.65 6.75 -3.60 7.95 -3.60 9.95 0 1 1.85 1.30 3.05 1.25 4.70 l-0.15 2.25 -15.40 7.90 c-11.15 5.75 -15.90 7.90 -17.15 7.90 l-1.75 0 -4.60 -9.30z m11.65 -5.20 c1.10 -0.55 2 -1.15 2 -1.30 0 -0.80 -4.20 -7.60 -5 -8.10 -1.45 -0.90 -3.70 1.10 -3.25 2.85 0.35 1.35 3.65 7.55 4.05 7.55 0.15 0 1.15 -0.45 2.20 -1z m-9.30 -41.10 c-0.15 -0.65 -0.60 -1.65 -0.90 -2.25 -0.55 -1.05 -0.60 -1.05 -2.90 1.15 l-2.35 2.20 3.25 0 c3.15 0 3.25 -0.05 2.90 -1.10z"/>
  <path d="M666.40 514.40 c-2.30 -1 -2.40 -1.10 -2.40 -3.05 0 -1.35 1.45 -5.70 4.40 -13.15 l4.35 -11.20 1.75 0 c1.05 0 7.30 2.20 15.75 5.55 7.70 3.05 14.95 5.90 16.15 6.30 2.05 0.70 2.10 0.80 2.10 2.95 0 1.20 -0.55 3.40 -1.20 4.95 -1.10 2.45 -1.40 2.75 -2.75 2.75 -0.80 0 -6.90 -2.15 -13.50 -4.75 -6.60 -2.60 -12.20 -4.75 -12.40 -4.75 -0.25 0 -1.75 3.45 -3.40 7.65 l-3.05 7.60 -1.70 0.10 c-0.95 0.05 -2.80 -0.35 -4.10 -0.95z"/>
  <path d="M698.75 489 c-13.05 -3.80 -15.40 -4.70 -17.75 -6.90 -2.50 -2.40 -3.20 -5.05 -2.85 -10.60 0.40 -6.15 1.90 -10.10 5.10 -13.35 2.15 -2.10 3 -2.65 4.90 -2.90 4.60 -0.70 8.90 0 20.75 3.25 l11.60 3.20 0 2.20 c0 1.20 -0.35 3.40 -0.80 4.90 l-0.75 2.70 -2.10 0 c-1.15 0 -6.80 -1.35 -12.60 -3 -5.75 -1.65 -10.95 -3 -11.60 -3 -2.75 0 -5.70 4.75 -4.55 7.30 0.80 1.75 3.45 2.80 15.65 6.30 l11 3.15 -0.05 2.25 c0 1.25 -0.35 3.45 -0.75 4.90 l-0.70 2.60 -2.25 -0.05 c-1.25 -0.05 -6.75 -1.35 -12.25 -2.95z"/>
  <path d="M47.25 482.40 c-0.10 -0.35 -1.05 -4.25 -2.10 -8.65 -2.40 -10.05 -2.65 -16.35 -0.75 -19.35 1.90 -3.05 3.80 -3.90 8.65 -3.90 2.30 0 4.50 0.20 4.90 0.45 0.55 0.35 0.95 -0.05 1.70 -1.50 0.60 -1.25 1.75 -2.45 3.10 -3.20 1.80 -1.05 2.70 -1.25 6.30 -1.25 5.25 0 7.80 1.05 9.70 3.95 2.25 3.35 7.45 26.05 6 26.05 -0.15 0 -8.05 1.80 -17.55 4 -9.55 2.20 -17.85 4 -18.55 4 -0.65 0 -1.25 -0.30 -1.40 -0.60z m9.95 -12.20 c1 -0.15 1.80 -0.35 1.80 -0.40 -0.30 -2.40 -2.25 -7.75 -3.15 -8.65 -1.15 -1.20 -1.20 -1.20 -2.35 -0.25 l-1.15 0.95 0.90 4.60 c0.65 3.15 1.15 4.50 1.55 4.35 0.35 -0.15 1.45 -0.40 2.40 -0.60z m14.30 -3.25 c1.35 -0.30 2.50 -0.65 2.50 -0.80 0 -0.10 -0.45 -2.05 -1.05 -4.30 -1 -3.90 -2.40 -6.35 -3.75 -6.35 -1.30 0 -2.85 1.85 -2.80 3.30 0.05 2.25 1.65 8.70 2.10 8.70 0.25 0 1.60 -0.25 3 -0.55z"/>
  <path d="M714.25 449.50 c-2.75 -3.85 -5.20 -7 -5.50 -7 -0.25 0 -5.05 1.90 -10.55 4.25 -6.40 2.70 -10.75 4.25 -11.90 4.25 -1.80 0 -1.80 0 -1.80 -2.10 0 -2.05 1.20 -9.25 1.60 -9.65 0.05 -0.10 3.60 -1.40 7.80 -2.95 4.20 -1.55 7.85 -2.90 8.10 -3.05 0.25 -0.15 -0.25 -1.25 -1.10 -2.45 l-1.50 -2.20 -5.25 -0.90 -5.30 -0.90 0.30 -4 c0.35 -5.55 0.50 -5.80 3.25 -5.80 1.80 0 29.10 4.55 34.50 5.75 0.95 0.25 1.10 0.55 1.05 2.65 0 1.30 -0.30 3.50 -0.60 4.85 -0.55 2.20 -0.75 2.50 -2.05 2.65 -0.80 0.10 -3.45 -0.20 -5.90 -0.65 -2.50 -0.45 -4.60 -0.75 -4.65 -0.65 -0.10 0.10 1.95 2.95 4.50 6.40 4.70 6.15 4.75 6.20 4.70 8.95 0 1.55 -0.30 4.25 -0.65 6.05 -0.60 3.20 -0.60 3.25 -2.30 3.40 -1.70 0.15 -1.85 0 -6.75 -6.90z"/>
  <path d="M38.30 442.45 c-0.15 -0.95 -0.35 -2.25 -0.45 -2.95 -0.05 -0.75 -0.40 -1.20 -0.80 -1.10 -0.35 0.10 -2.40 0.30 -4.55 0.45 l-3.90 0.30 -0.35 -2.70 c-0.20 -1.50 -0.25 -3.50 -0.15 -4.45 l0.15 -1.75 3.90 -0.45 c4.50 -0.55 4.85 -0.35 4.85 2.85 0 1.05 0.20 1.80 0.40 1.65 0.20 -0.10 5.80 -0.95 12.35 -1.80 6.55 -0.85 12.65 -1.85 13.50 -2.30 4.95 -2.35 3.55 -9.70 -1.85 -9.70 -1.10 0 -6.50 0.60 -12.05 1.30 -5.55 0.70 -10.85 1.20 -11.85 1.10 l-1.75 -0.15 0.15 2.55 0.20 2.55 -1.95 0.30 c-2.80 0.50 -6.55 0.40 -6.85 -0.10 -0.20 -0.25 -0.45 -2.15 -0.65 -4.25 -0.35 -4.45 -0.50 -4.30 4.90 -4.45 l3.70 -0.10 -0.15 -3.05 -0.20 -3.10 1.95 -0.30 c1.05 -0.15 6.50 -0.85 12.10 -1.55 15.60 -1.90 18.95 -1.65 22.55 1.55 3.15 2.85 4.15 6.20 4.20 13.70 0.05 5.55 -0.10 6.50 -1.05 8.30 -1.50 2.75 -3.65 4.50 -6.80 5.45 -2.90 0.85 -18.85 3.15 -25.20 3.60 l-4.10 0.30 -0.25 -1.70z"/>
  <path d="M34 399.55 l0 -5.05 2.90 -0.05 c1.55 -0.05 4.25 -0.20 6 -0.40 l3.15 -0.30 -6.25 -5.45 c-6.15 -5.30 -6.30 -5.50 -6.30 -7.50 0 -1.15 -0.15 -3.90 -0.35 -6.15 l-0.30 -4.15 1.95 0 c1.80 0 2.45 0.50 8.10 5.80 l6.10 5.80 6.90 -4.65 c3.75 -2.55 8.05 -5.50 9.55 -6.55 2 -1.40 3.20 -1.90 4.65 -1.90 l1.90 0 0 5.95 0 5.95 -7.25 4.45 -7.20 4.45 1.85 1.85 1.90 1.85 5.60 0 5.60 0 0 4.95 0 4.95 -1.85 0.30 c-1.05 0.15 -9.70 0.40 -19.25 0.60 l-17.40 0.30 0 -5.05z"/>
  <path d="M691 396.65 c0 -2.45 0.15 -4.90 0.30 -5.50 0.20 -0.70 2.65 -2.60 6.90 -5.40 6.25 -4.05 8.30 -6 8.30 -7.95 0 -0.70 -0.95 -0.80 -7.20 -0.80 -4 0 -7.35 -0.20 -7.55 -0.45 -0.15 -0.30 -0.10 -2.65 0.05 -5.30 l0.35 -4.85 8.80 0.30 c4.85 0.15 13.50 0.45 19.25 0.60 l10.45 0.30 -0.30 11.35 c-0.35 13.05 -0.85 15.60 -3.60 18 -2.80 2.45 -7.90 3.25 -12.50 2 -1.85 -0.55 -4.90 -3.10 -6 -5.10 -0.50 -0.90 -0.55 -0.90 -1.90 0.15 -0.75 0.60 -3.55 2.45 -6.20 4.05 -3.95 2.40 -5.25 2.95 -7 2.95 l-2.15 0 0 -4.35z m29.45 -9.55 c0.25 -0.45 0.60 -2.85 0.80 -5.25 l0.35 -4.40 -3.20 0.15 -3.15 0.15 0 4.45 c0.05 4.20 0.10 4.45 1.40 5.60 1.50 1.30 2.85 1.05 3.80 -0.70z"/>
  <path d="M698.60 360.45 c-3.60 -1.40 -7.20 -5.10 -8.60 -8.80 -1.55 -4.10 -1.90 -11.45 -0.80 -15.35 2.50 -8.60 10 -12.75 22 -12.20 6.05 0.25 9.35 1.55 12.65 4.85 3.35 3.40 4.35 6.55 4.40 14.05 0 5.85 -0.10 6.45 -1.40 9.10 -1.70 3.50 -5 6.50 -8.80 8 -2.30 0.90 -4 1.10 -9.80 1.25 -6.15 0.15 -7.35 0 -9.65 -0.90z m16.85 -11.70 c4.75 -3.20 4.55 -9.20 -0.45 -12.60 -2.25 -1.55 -4.55 -1.90 -8.10 -1.15 -3.50 0.75 -6.70 2.90 -8.10 5.55 -2.35 4.30 1.65 9.75 7.70 10.55 2.05 0.30 6.85 -1 8.95 -2.35z"/>
  <path d="M66.25 357.30 c-1.65 -0.90 -9.15 -4.95 -16.60 -9 -11.90 -6.45 -13.65 -7.55 -13.65 -8.55 0 -1.45 1 -8.95 1.25 -9.15 0.55 -0.55 36.35 -9.60 37.95 -9.60 l1.95 0 -0.30 4.85 c-0.30 5.45 -0.55 5.85 -4 6.40 -1.15 0.20 -2.80 0.65 -3.65 1 -1.45 0.60 -1.55 0.85 -1.90 4.05 -0.20 1.90 -0.50 4.40 -0.65 5.55 l-0.30 2.05 3.60 1.80 3.55 1.80 0 2.65 c0 1.40 -0.15 3.80 -0.30 5.25 l-0.35 2.60 -1.80 0 c-1.10 0 -2.95 -0.65 -4.80 -1.70z m-8.30 -20 c0.05 -1.30 -0.05 -1.40 -1.25 -1.10 -0.75 0.20 -1.95 0.50 -2.75 0.65 -0.80 0.15 -1.45 0.40 -1.45 0.60 0 0.15 1.10 0.90 2.40 1.60 2.60 1.45 3 1.25 3.05 -1.75z"/>
  <path d="M58.25 316 c-9.35 -2.20 -17.05 -4 -17.10 -4 -0.40 0 -0.05 -4.60 0.50 -7 l0.65 -2.75 10.35 -3.50 c5.70 -1.90 10.35 -3.65 10.35 -3.80 0 -0.15 -3.80 -1.15 -8.50 -2.20 l-8.50 -1.90 0 -2.15 c0 -1.20 0.25 -3.30 0.55 -4.70 l0.55 -2.50 2.05 0 c1.15 0 9.65 1.75 18.85 3.90 14.50 3.35 16.75 4 16.95 4.85 0.25 1.30 -1 7.60 -1.65 8.50 -0.30 0.40 -5.05 2.30 -10.55 4.20 -5.50 1.90 -9.65 3.55 -9.25 3.70 0.40 0.15 3.90 1 7.75 1.85 3.85 0.85 7.40 1.70 7.90 1.80 1 0.30 1.10 3 0.20 6.95 -0.55 2.40 -0.70 2.50 -2.35 2.60 -0.95 0.05 -9.40 -1.70 -18.75 -3.85z"/>
  <path d="M702.25 318.35 c-3.20 -1.80 -4.50 -4.35 -6.75 -13.25 -0.45 -1.80 -0.70 -2.05 -1.65 -1.85 -0.60 0.10 -3.05 0.70 -5.45 1.30 -6.30 1.50 -6.45 1.40 -7.50 -2.80 -0.50 -1.90 -0.85 -4.15 -0.75 -4.95 l0.10 -1.50 16.75 -3.90 c17.65 -4.05 20.75 -4.50 21.20 -3 1.75 6.25 3.50 15.95 3.50 19.60 0 4.75 -0.65 6.50 -3.25 8.70 -2.60 2.20 -4.65 2.80 -9.65 2.80 -3.80 0 -4.90 -0.20 -6.55 -1.15z m8.75 -10.60 c1.15 -1.20 1.20 -1.40 0.65 -4.55 -0.30 -1.80 -0.70 -3.40 -0.80 -3.55 -0.45 -0.40 -6.35 1.05 -6.35 1.60 0 1.55 1.65 5.85 2.60 6.75 1.45 1.35 2.50 1.25 3.90 -0.25z"/>
  <path d="M680 288.40 c-2.75 -1.40 -5.60 -5.05 -6.85 -8.85 -0.65 -2.05 -0.90 -4.30 -0.90 -8.30 0 -4.90 0.15 -5.70 1.20 -7.40 1.75 -2.85 5.30 -5.35 7.55 -5.35 1.80 0 1.90 0.10 3.20 3.05 1.85 4.25 1.75 5.60 -0.70 7.90 -1.35 1.30 -2 2.30 -2 3.25 0 1.95 1.85 5.25 3.35 5.95 1.10 0.50 1.40 0.40 2.20 -0.60 0.90 -1.05 0.95 -1.75 0.65 -7 -0.55 -9.20 0.85 -13.30 5.30 -15.55 2.90 -1.45 9 -1.40 11.75 0.15 6.30 3.55 9.40 17.05 5.40 23.25 -1.55 2.35 -4.35 4.10 -6.60 4.10 -1.40 0 -1.70 -0.25 -2.60 -2.35 -0.60 -1.35 -1.20 -3.35 -1.35 -4.55 -0.20 -1.95 -0.05 -2.35 1.40 -3.85 1.60 -1.65 1.65 -1.80 1.10 -3.60 -0.35 -1.05 -1.05 -2.45 -1.55 -3.15 -0.80 -1 -1.05 -1.10 -1.75 -0.55 -0.65 0.55 -0.80 2 -0.80 8.75 0 9.15 -0.55 11.20 -3.55 13.40 -2.40 1.80 -4.60 2.40 -8.65 2.40 -2.75 0 -4.15 -0.25 -5.80 -1.10z"/>
  <path d="M69.25 275.40 c-13.25 -12.30 -13.50 -12.55 -13.65 -14.65 -0.10 -1.35 0.25 -3.15 1.05 -5.05 l1.15 -2.95 3.25 -0.30 c1.75 -0.20 11.15 -0.35 20.85 -0.40 l17.60 -0.05 -0.05 1.65 c0 0.85 -0.65 3.20 -1.40 5.10 l-1.45 3.50 -4.35 0 -4.35 0 -2.20 5.50 -2.25 5.50 2.75 2.50 c3.30 3 3.50 4 1.50 9 -1.30 3.20 -1.35 3.25 -3.15 3.20 -1.65 0 -2.90 -1 -15.30 -12.55z m7.15 -11.05 c0.35 -0.90 0.60 -1.80 0.60 -2 0 -0.20 -1.40 -0.35 -3.10 -0.35 l-3.15 0.05 2.20 1.95 c1.20 1.10 2.35 2 2.50 2 0.20 0 0.60 -0.75 0.95 -1.65z"/>
  <path d="M82.70 243.55 c-8.25 -4.30 -15.30 -8 -15.60 -8.20 -1.30 -0.90 -0.50 -3.50 3.45 -10.95 5.80 -11.05 7.85 -12.80 15.25 -13.30 4.95 -0.30 8.15 0.40 13.15 2.85 6.55 3.20 10.25 7.95 10.85 13.85 0.50 4.50 -0.45 7.65 -4.70 16.10 l-3.85 7.60 -1.75 -0.05 c-1.20 -0.05 -6.30 -2.40 -16.80 -7.90z m16.10 -9.30 l1.80 -3.70 -1.05 -1.70 c-1.45 -2.35 -6.35 -5.60 -10.70 -7.05 -2.70 -0.90 -4.10 -0.50 -6.15 1.80 -1.40 1.45 -3.35 5.40 -2.95 5.80 0.45 0.45 16.40 8.55 16.90 8.60 0.20 0 1.20 -1.70 2.15 -3.75z"/>
  <path d="M661.85 248.40 c-4.60 -7.30 -4.60 -7.65 0.45 -16.65 2.10 -3.75 3.75 -6.85 3.65 -6.95 -0.10 -0.10 -1.10 -0.35 -2.25 -0.65 -1.90 -0.45 -2.25 -0.35 -6.25 1.95 -2.45 1.40 -4.80 2.40 -5.70 2.40 -1.35 0 -1.75 -0.35 -3.15 -2.80 -1.05 -1.80 -1.60 -3.45 -1.60 -4.70 l0 -1.90 7.90 -4.50 c4.30 -2.50 11 -6.35 14.85 -8.55 5.75 -3.35 7.35 -4.05 9.10 -4.05 2.05 0 2.20 0.10 3.65 2.65 0.90 1.55 1.50 3.30 1.50 4.45 0 1.75 -0.10 1.85 -4.75 4.45 -2.75 1.60 -4.45 2.80 -4.10 3 0.35 0.20 3.85 1.05 7.85 1.95 4 0.90 7.65 1.80 8.10 2.05 1.30 0.70 4.90 7.60 4.90 9.40 0 1.45 -0.10 1.55 -1.85 1.55 -1.05 0 -5.30 -0.90 -9.40 -1.95 l-7.50 -1.90 -5.55 10.80 -5.55 10.80 -1.80 0.15 c-1.40 0.15 -1.95 -0.10 -2.50 -1z"/>
  <path d="M641 213.45 c-1.20 -1.95 -1.50 -3 -1.40 -4.60 l0.15 -2 14.70 -9.45 c10.30 -6.60 15.10 -9.40 16.10 -9.40 2 0 4.95 4.30 4.95 7.30 l0 2.05 -14.55 9.30 c-17.15 11 -17.30 11.05 -19.95 6.80z"/>
  <path d="M105.75 213.55 c-5.55 -2 -10.90 -6.65 -13.15 -11.45 -1.20 -2.50 -1.35 -3.45 -1.35 -8.10 0 -4.85 0.10 -5.50 1.50 -8.25 1.90 -3.70 5.95 -7.95 9.10 -9.40 2 -0.90 3.25 -1.10 7.95 -1.10 5.35 0 5.60 0.05 9.30 1.90 4.65 2.30 8.75 6.20 10.70 10.20 1.30 2.60 1.45 3.40 1.45 7.90 0 4.55 -0.15 5.30 -1.55 8.30 -2.10 4.45 -6.20 8.50 -9.95 9.90 -3.65 1.35 -10.35 1.40 -14 0.10z m10.70 -10.30 c1.90 -0.95 3.80 -3.30 4.55 -5.45 0.50 -1.50 0.40 -2.05 -0.70 -4.15 -2 -3.95 -7.90 -8.15 -11.45 -8.15 -2.90 0 -6.85 3.50 -7.70 6.90 -0.70 2.80 3.30 7.75 8.35 10.40 2.60 1.35 4.95 1.50 6.95 0.45z"/>
  <path d="M628.90 196.05 c-9.50 -12.15 -9.45 -11.70 -2.55 -17.05 2.65 -2.05 8.75 -6.85 13.55 -10.60 7.65 -6.10 8.90 -6.90 10.50 -6.90 1.60 0.05 2.10 0.35 3.75 2.45 1.40 1.85 1.85 2.90 1.85 4.40 0 1.90 -0.10 1.95 -10.50 10.10 -5.80 4.50 -10.50 8.35 -10.50 8.60 0 0.20 2 2.95 4.50 6.05 3.80 4.80 4.50 5.95 4.50 7.50 0 1.50 -0.30 2.05 -1.95 3.35 -1.40 1.15 -2.45 1.55 -3.85 1.55 -1.95 0 -2 -0.10 -9.30 -9.45z"/>
  <path d="M136.50 186.75 c-0.35 -0.45 -6.15 -5.55 -12.80 -11.30 -11.55 -10 -12.20 -10.65 -12.20 -12.30 0 -1.30 0.50 -2.30 2.15 -4.20 1.75 -2.05 2.35 -2.45 3.85 -2.45 1.55 0 2.90 1 11.75 8.75 5.50 4.80 10.15 8.65 10.30 8.60 0.15 -0.05 2.50 -2.65 5.15 -5.70 4.80 -5.55 4.95 -5.65 7 -5.65 2.85 0 5.30 2.40 5.30 5.15 0 1.70 -0.75 2.70 -7.80 10.85 l-7.80 9 -2.15 0 c-1.30 0 -2.35 -0.30 -2.75 -0.75z"/>
  <path d="M614.10 178.05 c-1.60 -1.90 -2.10 -2.90 -2.10 -4.25 0 -1.70 0.60 -2.25 13.30 -13.30 15.40 -13.35 15.10 -13.20 18.60 -9.05 1.65 1.95 2.10 2.90 2.10 4.40 0 1.85 -0.25 2.10 -9.30 9.90 -5.15 4.40 -11.05 9.50 -13.15 11.35 -3.20 2.85 -4.10 3.40 -5.60 3.40 -1.55 0 -2.10 -0.35 -3.85 -2.45z"/>
  <path d="M603 164.40 c-4 -1.15 -8.90 -5.95 -10.35 -10.15 -1.05 -3.20 -0.75 -12.25 0.55 -14.75 1.75 -3.35 5 -7.10 8 -9.20 4.50 -3.15 5.85 -3.55 11.80 -3.55 6.15 0 8.25 0.75 12.25 4.35 3.65 3.30 4.95 6.20 5.15 11.40 0.10 2.75 -0.10 4.95 -0.55 6.25 -0.65 1.90 -0.80 2 -2.95 2.15 -1.85 0.10 -2.80 -0.15 -4.85 -1.40 -2.75 -1.70 -3.15 -2.85 -2.05 -5.75 1.15 -3.10 -3.20 -7.65 -6.75 -7.10 -3.55 0.60 -9.70 6.50 -11.15 10.70 -0.45 1.40 -0.35 1.95 0.60 3.75 0.65 1.30 1.85 2.55 2.95 3.15 1.60 0.90 1.95 0.90 3.45 0.30 0.90 -0.40 2.65 -0.80 3.90 -0.90 l2.25 -0.20 1.65 3.15 c2.40 4.55 2.15 5.80 -1.40 7.25 -3 1.25 -9.20 1.50 -12.50 0.55z"/>
  <path d="M156.40 160.55 c-2.85 -0.95 -5.05 -2.80 -13.60 -11.60 -8.35 -8.55 -8.80 -9.15 -8.80 -11 0 -1.60 0.35 -2.25 2.15 -3.90 1.75 -1.70 2.45 -2.05 4.15 -2.05 2 0 2.20 0.20 10.20 8.50 4.45 4.70 8.80 8.90 9.65 9.30 1.40 0.75 1.55 0.75 3.45 -0.65 1.10 -0.75 2.35 -2 2.80 -2.75 1.15 -1.95 0.65 -2.65 -9 -12.80 -9.85 -10.35 -9.90 -10.40 -6 -14.25 1.95 -1.90 2.70 -2.35 4.15 -2.35 1.60 0 2.35 0.60 9 7.65 11.95 12.50 12.95 14.05 12.95 19.65 0 4 -1.30 6.95 -4.55 10.40 -3.90 4.20 -6.85 5.75 -11.50 6.05 -2.05 0.10 -4.30 0.05 -5.05 -0.20z"/>
  <path d="M577 140.55 c-6.30 -2.05 -11.25 -5.90 -13.70 -10.75 -2.65 -5.25 -2.20 -13.70 1.05 -19.25 4.55 -7.75 11.85 -11.40 20.50 -10.20 2.15 0.30 4.25 0.70 4.70 0.90 0.70 0.25 0.80 0 0.60 -1.95 -0.15 -1.25 0 -3.30 0.35 -4.55 0.60 -2.20 0.65 -2.25 2.75 -2.25 2.65 0 3.75 1.10 3.75 3.90 0 2.70 1.30 3.70 4.35 3.25 3.30 -0.45 4.65 0.45 4.65 3.15 0 1.70 -0.25 2.25 -1.35 3 -0.80 0.50 -2.65 1 -4.20 1.10 l-2.85 0.20 1.60 2.55 c1.35 2.20 1.55 3 1.70 6.80 0.10 2.40 0 5.10 -0.25 6.05 -0.40 1.60 -0.65 1.75 -2.45 1.90 -1.45 0.10 -2.70 -0.25 -4.85 -1.45 l-2.90 -1.55 0.10 -2.60 c0.15 -3.50 -0.95 -5.45 -4.20 -7.30 -1.40 -0.80 -3 -1.50 -3.50 -1.50 -3.85 0 -10.95 7.90 -10.95 12.25 0 3.25 2.75 6.45 6.90 8.05 1.95 0.75 2.35 0.75 2.75 0.15 0.65 -1 0.60 -1.05 -1.80 -2.85 -1.95 -1.40 -2.25 -1.90 -2.25 -3.40 0 -1.20 0.50 -2.50 1.60 -4 2.50 -3.45 3.65 -3.20 10.65 2.35 5.60 4.40 5.75 4.55 5.75 6.55 0 1.70 -0.55 2.65 -4.05 7.20 l-4 5.20 -3.85 -0.05 c-2.25 0 -5 -0.35 -6.60 -0.90z"/>
  <path d="M192.60 127.15 c-1.65 -2.70 -5.85 -9.30 -9.30 -14.65 -5.40 -8.40 -6.30 -10.05 -6.30 -11.80 0 -1.95 0.15 -2.15 2.55 -3.65 1.65 -1 3.15 -1.55 4.40 -1.55 1.80 0 1.95 0.15 4.85 4.70 l3.05 4.75 1.35 -8.10 c0.75 -4.45 1.50 -8.50 1.60 -8.95 0.40 -1.40 7.35 -5.40 9.40 -5.40 1.70 0 1.80 0.10 1.75 1.65 0 0.85 -0.75 5.10 -1.65 9.35 l-1.60 7.75 9.70 4.40 c5.35 2.40 9.80 4.30 9.90 4.20 0.10 -0.10 -0.60 -7.80 -1.60 -17.10 -0.95 -9.30 -1.70 -17.50 -1.60 -18.20 0.20 -1.70 5.20 -4.55 8 -4.55 1.85 0 2.75 0.70 16.20 12.35 13.60 11.85 14.20 12.45 14.20 14.15 0 1.70 -0.15 1.85 -3.25 3.40 -4.50 2.20 -5.80 2.10 -8.85 -0.65 -1.40 -1.25 -2.70 -2.25 -2.95 -2.25 -0.25 0 -2.70 1.10 -5.45 2.50 l-4.95 2.50 0.30 4.45 0.30 4.50 -3.45 1.65 c-1.90 0.90 -3.65 1.90 -3.95 2.20 -0.25 0.30 -1.90 1.50 -3.60 2.65 -4.45 2.95 -5.50 2.85 -13.85 -1.50 -3.70 -1.95 -7 -3.40 -7.25 -3.25 -0.20 0.15 -0.55 1.15 -0.75 2.25 -0.25 1.80 -0.05 2.40 2.20 5.85 1.90 2.90 2.50 4.30 2.50 5.75 0 1.75 -0.20 2 -2.85 3.65 -1.70 1.05 -3.50 1.80 -4.45 1.80 -1.40 0 -1.80 -0.40 -4.60 -4.85z m39.75 -39.60 c-1.15 -1.10 -2.15 -1.90 -2.25 -1.85 -0.05 0.10 0 1.40 0.20 2.95 l0.35 2.80 1.90 -0.95 1.90 -1 -2.10 -1.95z"/>
  <path d="M548.85 121.35 l-2.95 -1.60 0.30 -3.75 c0.15 -2.10 0.40 -4.10 0.55 -4.50 0.20 -0.55 -1.15 -1.55 -4.60 -3.50 -2.65 -1.50 -5 -2.80 -5.25 -2.90 -0.20 -0.10 -1.45 0.75 -2.80 1.85 -3.15 2.70 -5.45 2.80 -9.40 0.45 -2.45 -1.50 -2.70 -1.80 -2.70 -3.40 0 -1.70 0.50 -2.15 14.30 -13.25 13.65 -10.95 14.40 -11.50 16.65 -11.65 1.85 -0.10 2.80 0.20 5.05 1.55 2.55 1.50 2.75 1.80 2.85 3.65 0.10 1.05 -1.05 10.15 -2.50 20.20 l-2.65 18.25 -1.95 0.10 c-1.45 0.10 -2.80 -0.30 -4.90 -1.50z m0.35 -25 l0.30 -2.40 -2.25 1.90 c-1.25 1 -2.25 1.95 -2.25 2 0 0.10 0.75 0.60 1.60 1.15 1.90 1.15 2.10 0.90 2.60 -2.65z"/>
  <path d="M509.10 99.50 c-1.15 -0.25 -5.50 -1.95 -9.60 -3.80 -7.35 -3.30 -7.50 -3.40 -7.50 -4.90 0 -1.25 7.90 -19.50 14 -32.40 1.05 -2.20 3.15 -1.85 10.95 1.70 8 3.60 9.90 4.75 11.80 7 3 3.55 3.90 9 2.55 15.30 -1.50 7.15 -5.40 13.15 -10.35 15.80 -2.90 1.60 -7.80 2.15 -11.85 1.30z m6.90 -11.40 c2.50 -2.60 5.50 -8.85 5.50 -11.55 0 -1.95 -2 -4.30 -5.05 -5.80 -1.35 -0.70 -2.60 -1.25 -2.90 -1.25 -0.35 0 -2.30 4.05 -7.35 15.35 l-1.15 2.55 3.60 1.55 c2 0.85 3.90 1.55 4.30 1.55 0.40 0 1.80 -1.10 3.05 -2.40z"/>
  <path d="M258.05 95.40 c-1.10 -2.85 -6.25 -15.95 -9.25 -23.50 -1.80 -4.60 -3.30 -9 -3.30 -9.85 0 -1.35 0.25 -1.60 2.75 -2.50 5.50 -2.05 6.20 -1.85 15.25 4.95 4.40 3.30 8 5.90 8 5.80 0 -0.10 -1.25 -3.30 -2.75 -7.10 -1.55 -3.90 -2.75 -7.75 -2.75 -8.75 0 -1.70 0.15 -1.90 2.55 -2.90 1.55 -0.70 3.25 -1.05 4.55 -0.95 l2 0.15 6.45 16.25 c6.10 15.40 6.95 18.05 6.05 19.25 -0.55 0.85 -6 2.75 -7.80 2.75 -1.30 0 -3.20 -1.20 -9.55 -6 -7.60 -5.75 -8.60 -6.45 -8.10 -5.60 1.30 2.05 5.35 13.65 5.35 15.15 0 1.80 -0.15 1.95 -2.30 2.95 -1.30 0.55 -3.30 1 -4.55 1 -1.80 0 -2.25 -0.20 -2.60 -1.10z"/>
  <path d="M459.40 82.35 l-12.40 -3.55 0 -2.25 c0.05 -1.35 1.95 -9.05 4.70 -18.55 l4.60 -16.25 1.75 -0.15 c1.05 -0.10 6.70 1.25 13.95 3.30 l12.25 3.45 0.15 1.70 c0.10 0.95 -0.05 2.90 -0.40 4.35 l-0.55 2.60 -2.15 0 c-1.20 0 -5.35 -0.90 -9.30 -2.05 -3.95 -1.15 -7.30 -1.85 -7.55 -1.60 -0.20 0.20 -0.50 1.15 -0.55 2.10 l-0.15 1.70 6 1.65 c3.30 0.95 6.85 1.95 7.90 2.20 1.75 0.50 1.85 0.65 1.85 2.50 0 1.10 -0.25 3 -0.60 4.25 l-0.60 2.25 -2.30 0 c-1.25 0 -5 -0.80 -8.35 -1.75 -3.35 -0.95 -6.30 -1.75 -6.60 -1.75 -0.50 0 -2.15 4.95 -1.80 5.50 0.10 0.15 4.15 1.40 8.95 2.80 l8.80 2.45 0 2.15 c0 1.20 -0.25 3.15 -0.55 4.40 -0.55 2.15 -0.60 2.20 -2.65 2.15 -1.10 -0.05 -7.60 -1.65 -14.40 -3.60z"/>
  <path d="M300.05 74.90 l-1.65 -7.15 -8.45 -8.50 c-7.75 -7.80 -8.45 -8.65 -8.45 -10.30 l0 -1.75 3.65 -0.85 c6.45 -1.55 6.50 -1.50 11.60 3.95 l4.50 4.80 2.05 -6.65 2 -6.70 3.25 -0.85 c1.75 -0.45 4.25 -0.85 5.60 -0.85 2.20 -0.05 2.35 0.05 2.35 1.25 0 1 -5.50 17.65 -7.45 22.45 -0.25 0.65 0.15 3.20 1.05 7 0.80 3.30 1.35 6.90 1.30 7.95 -0.15 1.95 -0.20 2 -2.90 2.60 -1.50 0.35 -3.65 0.65 -4.80 0.70 l-2 0 -1.65 -7.10z"/>
  <path d="M425.60 75.50 c-1.45 -0.20 -2.75 -0.50 -2.80 -0.55 -0.40 -0.45 -8.30 -37.35 -8.30 -38.65 l0 -1.45 3.95 0.35 c7.35 0.65 6.45 -0.50 9.05 11.90 1.25 5.95 2.40 10.95 2.55 11.10 0.15 0.15 2.40 -4.20 5 -9.70 l4.70 -9.95 2.50 -0.05 c1.40 0 3.70 0.15 5.15 0.30 l2.60 0.35 0 1.90 c0 1.50 -1.85 5.65 -8.25 18.45 l-8.25 16.50 -2.65 -0.05 c-1.40 -0.05 -3.80 -0.25 -5.25 -0.45z"/>
  <path d="M333.75 75.05 c-2.25 -0.55 -5.35 -2.30 -6.95 -3.85 -4.05 -4.05 -5.50 -8.50 -5.55 -16.95 0 -5.55 0.10 -6.25 1.40 -9 2.50 -5.30 6.15 -8.05 12.25 -9.25 4.20 -0.85 10.80 -0.40 13.75 0.90 7.15 3.15 11 11.60 10.15 22.30 -0.80 10.70 -7.50 16.35 -19.30 16.25 -2.35 -0.05 -4.90 -0.20 -5.75 -0.40z m9.80 -10.05 c2.20 -1.15 3.65 -3.20 4.50 -6.25 0.65 -2.40 -0.40 -7.25 -2.15 -9.95 -1.25 -1.90 -4.15 -3.80 -5.85 -3.80 -1.50 0 -4.60 1.35 -5.90 2.60 -0.65 0.60 -1.55 2.30 -2 3.80 -0.80 2.55 -0.80 2.85 0 6 0.95 3.60 2.65 6.20 5.05 7.65 2 1.20 3.85 1.20 6.35 -0.05z"/>
  <path d="M363.35 59.40 c-0.20 -7.25 -0.35 -15.90 -0.35 -19.20 l0 -6.05 4.55 -0.40 c4.10 -0.30 4.70 -0.25 5.45 0.60 0.45 0.50 3.25 4.65 6.20 9.30 3 4.60 5.50 8.35 5.60 8.35 0.10 0 0.15 -4.20 0.10 -9.35 l-0.15 -9.40 4.55 -0.15 4.60 -0.15 0.30 5.15 c0.15 2.85 0.40 11.60 0.60 19.55 l0.30 14.35 -5.15 0 -5.20 -0.05 -5.95 -9.10 -5.90 -9.10 0.30 9.40 0.30 9.35 -4.90 0 -4.95 0 -0.30 -13.10z"/>
 </g>
 <g fill="#ffffff">
  <path d="M0 382 l0 -382 382 0 382 0 0 382 0 382 -382 0 -382 0 0 -382z m411.25 380 c77.15 -6.20 148.05 -34.05 207.80 -81.60 77.70 -61.85 128 -150.75 140.95 -249.15 4.05 -30.65 4.05 -67.75 0 -98.75 -9.60 -74.25 -41 -143.95 -90.45 -201 -8.30 -9.60 -27.40 -28.65 -37.05 -37.10 -62.75 -54.55 -139 -86.35 -223 -92.95 -11.45 -0.90 -45.95 -0.75 -57.95 0.25 -91.20 7.55 -174.60 46 -238.75 110.05 -65.05 64.90 -103.45 147.95 -111.10 240 -1.15 13.40 -1.15 46.50 0 60.05 6.75 82.40 38.30 157.60 92.20 220.05 8.65 10 27.60 29 37.35 37.45 63.05 54.45 138.05 85.95 220.50 92.70 15.95 1.30 43.55 1.30 59.50 0z"/>
  <path d="M354.75 748.20 c-102.95 -7.90 -196.55 -57.50 -260.70 -138.20 -41.25 -51.85 -67.60 -113.95 -76.30 -179.80 -2.25 -17.15 -2.95 -28.10 -2.95 -47.95 0 -19.55 0.45 -27.50 2.50 -45 7.90 -66.20 34.15 -129.50 75.70 -182.25 17.50 -22.30 39.55 -44.30 61.75 -61.80 46.85 -36.85 100.95 -61.45 159.50 -72.45 22.50 -4.20 41.25 -5.90 66.50 -5.95 20.15 0 28.70 0.45 45.75 2.50 81.20 9.75 156.85 46.60 214.95 104.75 57.50 57.55 93.70 130.80 104.55 211.45 4 29.85 4 66.40 0 96.75 -13.30 100.80 -68.25 191.85 -151.60 251.15 -39.10 27.85 -83.65 47.80 -130.65 58.55 -27.80 6.35 -53 9.10 -82.75 9 -9.50 -0.05 -21.30 -0.40 -26.25 -0.75z m-4.50 -20.40 l0 -3.40 -6.85 0.05 c-3.80 0.05 -6.90 0 -6.90 -0.15 0 -0.95 1.20 -2.25 5.40 -5.95 3.05 -2.65 5.45 -5.25 6.50 -7 3.10 -5.15 2.60 -11 -1.15 -14.30 -2.10 -1.85 -4.50 -2.55 -8.65 -2.55 -5.20 0 -8.80 2.15 -10.65 6.40 -1.40 3.25 -1.25 4.40 0.60 4.80 0.85 0.15 2.45 0.30 3.50 0.30 1.65 0 1.95 -0.15 1.95 -1 0 -4.45 6.15 -6.55 8.70 -2.90 0.90 1.30 1.05 3.70 0.30 5.70 -0.30 0.75 -3.50 4.40 -7.15 8.15 -6.50 6.65 -8.60 9.60 -9.60 13.70 l-0.35 1.35 11.65 0.10 c6.45 0.10 11.95 0.15 12.20 0.10 0.30 0 0.50 -1.55 0.50 -3.40z m57.25 -0.05 l0 -3.25 -7 0 c-4.80 0 -7 -0.15 -7 -0.55 0 -0.65 2.25 -2.85 7 -7 8.15 -7.10 9.30 -16 2.65 -20.65 -1.80 -1.25 -2.70 -1.50 -6.15 -1.70 -6.45 -0.35 -10.50 1.85 -12.25 6.85 -1.15 3.35 -1 3.85 1.15 4.25 3.70 0.60 5.10 0.40 5.10 -0.70 0 -3.45 3.45 -5.65 6.65 -4.30 2 0.80 2.85 2.05 2.85 4.25 0 2.75 -1 4.15 -7.70 11 -3.65 3.80 -7.15 7.75 -7.65 8.85 -1.30 2.50 -2.30 5.55 -2 6.05 0.15 0.25 5.70 0.35 12.30 0.25 l12.05 -0.15 0 -3.20z m-35.10 2.30 c4.60 -2.35 6.60 -7.50 6.60 -17.30 0 -9.80 -1.90 -14.80 -6.50 -17.15 -3.25 -1.70 -8.45 -1.40 -11.45 0.55 -3.75 2.50 -5.55 8 -5.55 16.95 0 12.30 3.75 17.90 11.90 17.90 2.10 0 3.75 -0.30 5 -0.95z m57.65 -0.20 c7.45 -3.95 8.50 -14.50 1.80 -18.10 -1 -0.55 -1.85 -1.10 -1.85 -1.25 0 -0.15 0.70 -0.70 1.50 -1.15 2 -1.20 3 -3.25 3 -6.10 0 -5.35 -4.15 -8.75 -10.60 -8.75 -3.65 0 -6.70 1.20 -8.30 3.20 -1.20 1.55 -2.90 5.70 -2.45 6.10 0.35 0.40 3.85 1.15 5.25 1.20 0.75 0 1.10 -0.30 1.10 -0.95 0 -1.50 2.05 -3.50 3.85 -3.85 1.35 -0.25 1.85 -0.05 3.20 1.25 1.25 1.30 1.50 1.85 1.20 2.95 -0.50 1.95 -2.20 3.60 -3.80 3.60 -1.70 0 -1.90 0.30 -2.30 3.45 l-0.30 2.50 1.45 -0.55 c1.15 -0.40 1.85 -0.35 3.35 0.25 3.65 1.55 4.40 7.15 1.30 10.15 -2.80 2.65 -6.65 1.40 -8 -2.70 l-0.55 -1.70 -3.10 0.35 c-1.65 0.15 -3.15 0.40 -3.25 0.50 -0.50 0.50 0.65 3.85 2 5.90 2.10 3.20 5.50 4.85 9.95 4.85 2.55 0 3.90 -0.30 5.55 -1.15z m-122.10 -12.50 c7.65 -5.10 5.50 -16.80 -3.55 -18.80 -3.55 -0.80 -6.65 0.15 -9.40 2.90 -2.40 2.40 -3 3.90 -3 7.70 0 3.95 3.10 8.15 6.85 9.35 2.65 0.85 6.90 0.30 9.10 -1.15z m154.45 0.85 c4.10 -1.70 6.25 -4.95 6.30 -9.50 0.15 -10.90 -14.40 -14.45 -19.30 -4.75 -2.35 4.60 -1.65 8.50 2.10 12.15 1.35 1.25 2.95 2.40 3.60 2.55 2.55 0.50 5.55 0.30 7.30 -0.45z m-58.40 -38.45 c50.35 -3.90 96.75 -19.40 138.80 -46.25 45.05 -28.85 82.20 -70 105.90 -117.40 21.35 -42.65 31.80 -86.85 31.80 -134.35 0 -95.90 -45.65 -185.45 -123.35 -241.80 -44.80 -32.50 -95.50 -51.15 -152.40 -56 -9.10 -0.80 -36.45 -0.80 -45.75 0 -38.85 3.20 -73.45 12.60 -107.75 29.25 -84.95 41.25 -145.75 120.90 -163 213.45 -3.50 18.65 -4.90 34.45 -4.90 55.35 0 20 1.05 32.50 4.20 50.90 11.50 67 45.50 127.70 96.95 173.05 48.95 43.10 108.20 68.25 174.10 73.75 11.30 0.95 33.50 0.95 45.40 0.05z m241.25 -58.30 l1.90 -2.10 -1.95 -1.65 c-1.10 -0.90 -2.20 -1.65 -2.55 -1.70 -0.30 0 -1.30 0.90 -2.15 2 l-1.55 2 1.90 1.75 c1.05 0.95 2.05 1.75 2.20 1.75 0.20 0 1.20 -0.95 2.20 -2.05z m-10.30 -2.05 c1.15 -1.30 2 -2.60 1.80 -2.85 -0.15 -0.30 -4.30 -4 -9.20 -8.25 -4.85 -4.25 -9.25 -8.30 -9.70 -9 -1.85 -2.75 -0.45 -6.75 3.10 -9.15 3.70 -2.50 5.40 -1.65 17.30 8.80 l8 7.05 2.40 -2.55 c1.30 -1.40 2.25 -2.70 2.10 -2.95 -0.35 -0.55 -13.30 -11.75 -16.70 -14.45 -4 -3.15 -6.25 -4.10 -9.30 -4.10 -3.45 0 -6.20 1.40 -9.60 4.95 -3.45 3.65 -5.15 7.05 -5.15 10.30 0 4.90 1.55 6.70 16.75 19.95 3.05 2.65 5.60 4.75 5.75 4.70 0.15 -0.05 1.25 -1.15 2.45 -2.45z m-492 -10.90 c7.15 -6.20 13.05 -11.45 13.05 -11.75 0 -0.25 -1 -1.60 -2.20 -2.95 l-2.15 -2.50 -4.10 3.65 -4.15 3.65 -3.80 -0.35 c-2.15 -0.20 -3.95 -0.45 -4.05 -0.55 -0.10 -0.05 1.20 -4.20 2.85 -9.20 l3.05 -9.05 -3.15 -3.60 c-1.70 -2 -3.80 -4.75 -4.70 -6.20 -2.40 -3.75 -2.40 -3.75 -6.40 -2.65 -1.90 0.55 -3.70 1 -4.05 1 -0.60 0 -2.20 -2 -6.65 -8.35 l-2.15 -3.10 2.30 -3.55 c1.30 -1.90 2.35 -3.60 2.35 -3.75 0 -0.50 -4 -5.75 -4.40 -5.75 -0.30 0 -15.60 23.60 -19.50 30.05 l-1.20 1.95 1.90 2.60 c1.05 1.45 2.05 2.85 2.20 3.05 0.20 0.25 8.35 -1.60 18.10 -4.10 9.75 -2.50 18 -4.55 18.35 -4.55 0.90 0 0.65 1.25 -2.85 13.25 l-3.35 11.50 -2.25 0 c-1.25 0 -5.45 -0.20 -9.35 -0.40 -3.95 -0.20 -7.15 -0.20 -7.15 0 0 0.20 1.35 1.85 2.95 3.65 l2.90 3.25 8.95 0.15 c4.90 0.05 9.70 0.25 10.60 0.40 l1.60 0.25 -5.75 5.05 c-3.15 2.75 -5.75 5.10 -5.75 5.25 0 0.45 4.25 5.15 4.60 5 0.15 -0.05 6.15 -5.15 13.35 -11.35z m508.90 5.40 c0.90 -0.90 1.65 -1.85 1.65 -2.20 0 -0.60 -3.40 -3.70 -4.05 -3.70 -0.20 0 -1.10 0.95 -2 2.10 l-1.65 2.05 1.95 1.70 c1.05 0.90 2.05 1.65 2.20 1.65 0.15 0 1 -0.70 1.90 -1.60z m8.10 -26.85 c1 -0.55 2.65 -1.95 3.60 -3.15 2.15 -2.60 10.40 -14.25 10.60 -14.85 0.05 -0.25 -6.30 -5 -14.15 -10.55 -9.85 -7.05 -14.40 -10 -14.85 -9.70 -0.90 0.60 -9.75 13.30 -11.50 16.45 -1.90 3.50 -1.90 6.80 0.10 10.05 2.65 4.20 7.75 5.85 11.85 3.80 l1.80 -0.95 0.20 2.40 c0.60 5.90 6.95 9.25 12.35 6.50z m23.25 -32.55 c0.85 -1.65 1.40 -3.05 1.25 -3.15 -0.10 -0.10 -4.95 -2.60 -10.75 -5.55 -11.70 -5.90 -13.70 -7.45 -13.70 -10.20 0 -2.45 1.85 -6 3.70 -7.15 2.75 -1.70 4.15 -1.30 15.70 4.55 6 3.05 11.10 5.50 11.40 5.50 0.50 0 3.20 -4.70 3.20 -5.65 0 -0.70 -21.85 -11.60 -24.80 -12.35 -5.45 -1.35 -10.30 1.75 -13.75 8.80 -3.55 7.05 -2.80 11.90 2.30 15.80 2.30 1.75 22.45 12.35 23.50 12.40 0.30 0 1.15 -1.35 1.95 -3z m11.30 -2.35 c0 -0.60 -3.45 -2.65 -4.45 -2.65 -0.30 0 -1.10 1.05 -1.75 2.40 l-1.20 2.35 2.55 1.35 2.60 1.30 1.10 -2.05 c0.60 -1.15 1.10 -2.40 1.15 -2.70z m-597.90 -4.45 c8.35 -4.25 15.35 -7.95 15.60 -8.20 0.50 -0.50 -0.45 -2.95 -2 -5.40 l-0.75 -1.15 -6.15 3.30 c-3.40 1.80 -6.40 3.25 -6.65 3.25 -0.30 0 -0.90 -0.90 -1.40 -2 -1.35 -3 -0.80 -5.15 3.25 -12.55 l3.65 -6.60 -1.85 -3.75 -1.90 -3.80 -1.95 3.10 c-3.25 5.10 -5.90 10.50 -6.25 12.60 -0.35 2.20 -0.90 2.50 -1.70 1 -0.30 -0.55 -1.50 -1.55 -2.70 -2.25 -3.90 -2.30 -8.90 -1.30 -12.15 2.45 -3.50 3.95 -3.10 6.80 2.75 18.60 2.50 5.05 4.70 9.20 4.80 9.20 0.15 0 7.05 -3.50 15.40 -7.80z m601.65 -2.65 c0.95 -1.90 1.10 -2.55 0.60 -2.95 -0.85 -0.65 -3.70 -2.10 -4.25 -2.10 -0.35 0 -2.60 4.10 -2.60 4.75 0 0.20 4.35 2.65 4.85 2.75 0.10 0 0.70 -1.10 1.40 -2.45z m-24.25 -39.50 c1.75 -4.45 3.35 -8.05 3.55 -8.05 0.35 0 12.45 4.70 24.35 9.45 l2.65 1.05 1.25 -2.75 c0.65 -1.55 1.20 -3.10 1.20 -3.45 0 -0.35 -1.20 -1.10 -2.60 -1.65 -1.45 -0.55 -8.80 -3.40 -16.30 -6.35 -7.50 -3 -13.75 -5.30 -13.80 -5.25 -0.35 0.50 -8.80 22.35 -8.80 22.80 0 0.55 4.50 2.65 5.05 2.35 0.15 -0.05 1.70 -3.75 3.45 -8.15z m-576.25 4.10 c-0.20 -0.50 -0.80 -2.10 -1.35 -3.50 l-1.05 -2.65 -4.35 0 -4.40 0 -2.55 -6.35 c-1.40 -3.55 -2.55 -6.60 -2.50 -6.90 0 -0.25 1.35 -1.60 3 -3 3.30 -2.80 3.35 -3.05 1.50 -7.45 l-1.05 -2.45 -1.10 0.95 c-0.65 0.55 -6.95 6.45 -14.05 13.15 -9.55 9 -12.80 12.40 -12.60 13 0.20 0.45 0.80 2 1.35 3.45 l1.05 2.60 19.20 0 c18.15 0 19.25 -0.05 18.90 -0.85z m614.65 -21.75 c0.40 -1.45 0.70 -3 0.75 -3.40 0.10 -0.55 -2.65 -1.55 -10.90 -3.90 -12.75 -3.65 -14.90 -4.55 -15.75 -6.65 -1.25 -3 0.15 -7.40 3 -9.35 2.20 -1.50 2.70 -1.45 16.35 2.40 5.80 1.65 10.80 3 11.05 3 0.50 0 2.10 -4.65 2.10 -6.10 0 -0.45 -3.60 -1.65 -11.35 -3.80 -12.75 -3.55 -14.55 -3.90 -17.95 -3.35 -3.40 0.50 -7.10 4.25 -8.65 8.75 -3.15 9.40 -1.15 15.20 6.30 18 3.25 1.20 22.50 6.85 23.65 6.95 0.50 0.05 1 -0.80 1.40 -2.55z m-634.50 -13.20 c3.05 -0.75 5.60 -1.60 5.60 -1.90 0 -0.30 -1.10 -5 -2.45 -10.45 -2.75 -11.15 -3.80 -13.35 -7.20 -14.90 -4.95 -2.25 -10.75 -0.55 -12.80 3.70 -0.60 1.20 -1.05 2.60 -1.05 3.10 0 0.85 -0.05 0.85 -1.10 -0.10 -1.85 -1.65 -3.20 -2.15 -5.95 -2.15 -5.10 0 -8.20 3.40 -8.20 9 0.05 2.55 2.60 15.40 4 19.80 0.15 0.50 7.05 -0.90 29.15 -6.10z m644 -23.75 c0.35 -1.85 0.60 -3.75 0.60 -4.30 0 -0.50 -2.80 -4.65 -6.25 -9.15 -3.45 -4.55 -5.95 -8.30 -5.60 -8.40 0.30 -0.05 3.60 0.45 7.30 1.10 3.70 0.70 6.85 1.15 7.05 1.05 0.45 -0.30 1.65 -6.25 1.30 -6.60 -0.25 -0.30 -32.55 -6.15 -33.85 -6.15 -1 0 -1.35 0.80 -1.75 4.20 l-0.30 2.60 5.25 0.90 5.25 0.90 2.30 3.30 c1.25 1.85 2.10 3.45 1.90 3.65 -0.20 0.20 -4.15 1.75 -8.85 3.45 -4.65 1.70 -8.60 3.30 -8.80 3.55 -0.40 0.70 -1.55 8 -1.30 8.30 0.15 0.10 5.40 -1.95 11.65 -4.55 6.25 -2.65 11.65 -4.75 11.95 -4.60 0.30 0.10 2.90 3.45 5.75 7.50 2.85 4 5.35 7.10 5.55 6.90 0.15 -0.20 0.55 -1.85 0.85 -3.65z m-667.15 -10.20 c13.40 -1.80 15.95 -2.85 18.40 -7.45 1.50 -2.90 1.50 -10.25 -0.10 -14.40 -1.80 -4.70 -5.70 -7.40 -10.60 -7.40 -1.65 0 -19.60 2.10 -24.10 2.80 l-1.95 0.30 0.35 3.10 c0.20 1.65 0.50 3.25 0.75 3.45 0.20 0.25 5.85 -0.30 12.55 -1.10 6.70 -0.85 12.75 -1.40 13.45 -1.20 3.20 0.80 4.50 2.85 4.50 7 0 2.75 -1.20 4.90 -3.25 5.85 -1.20 0.55 -22.80 3.80 -25.35 3.80 -0.25 0 -0.30 0.85 -0.15 1.90 0.15 1 0.40 2.60 0.55 3.55 l0.25 1.65 2.85 -0.35 c1.55 -0.15 6.90 -0.85 11.85 -1.50z m-21 -3.65 c1.95 -0.35 2 -0.40 1.85 -2.35 -0.30 -3.65 -0.40 -3.75 -3 -3.40 -1.30 0.15 -2.55 0.45 -2.80 0.65 -0.20 0.25 -0.25 1.55 -0.05 2.95 0.35 2.75 0.40 2.80 4 2.15z m0.60 -10.80 c0.10 -0.10 0 -1.35 -0.25 -2.85 l-0.35 -2.70 -2.50 0.20 c-1.40 0.05 -2.70 0.25 -2.90 0.40 -0.40 0.25 0.05 4.45 0.55 5.35 0.20 0.35 5.05 0 5.45 -0.40z m34.55 -24.10 l2.10 -0.25 0 -3.55 0 -3.55 -5.30 0.30 -5.35 0.30 -2.90 -2.80 c-1.65 -1.55 -2.95 -2.95 -2.95 -3.10 0 -0.15 3.60 -2.50 8 -5.25 l8 -4.90 0 -4.50 c0 -3.70 -0.15 -4.45 -0.70 -4.25 -0.40 0.15 -5.05 3.25 -10.30 6.85 -5.25 3.60 -9.90 6.70 -10.30 6.85 -0.45 0.15 -2.10 -1.05 -4.35 -3.20 -7.15 -6.85 -9.85 -9.30 -10.05 -9.10 -0.10 0.10 -0.10 2.25 0.05 4.80 l0.30 4.60 7.55 6.60 c4.15 3.60 7.65 6.80 7.70 7 0.10 0.25 -1 0.45 -2.50 0.45 -1.45 0 -4.85 0.15 -7.50 0.35 l-4.90 0.30 0 3.45 0 3.50 15.65 -0.35 c8.55 -0.15 16.55 -0.40 17.75 -0.55z m628.30 -4.75 c5.50 -3.25 9.50 -6.20 10.25 -7.65 0.40 -0.70 0.85 -1.30 1.05 -1.30 0.15 0 0.55 1.05 0.90 2.35 1.05 3.95 5.25 7.15 9.35 7.15 2.05 0 4.85 -1.10 6.50 -2.55 2.60 -2.30 3.20 -5.05 3.60 -16.50 l0.30 -9.85 -10.45 -0.30 c-5.75 -0.15 -13.75 -0.40 -17.80 -0.55 l-7.30 -0.25 -0.20 3.35 c-0.10 1.90 -0.10 3.55 0 3.80 0.10 0.20 3.40 0.35 7.40 0.35 l7.20 0 0 2.30 c0 1.25 -0.40 2.95 -0.85 3.75 -0.50 0.80 -3.65 3.25 -7.45 5.70 -4.25 2.80 -6.70 4.70 -6.90 5.40 -0.55 2.05 -0.35 6.85 0.30 6.85 0.30 0 2.20 -0.95 4.10 -2.05z m19.35 -38.90 c3.80 -1.45 7.05 -4.45 8.80 -7.95 1.25 -2.55 1.40 -3.35 1.35 -7.60 -0.05 -8 -2.95 -13.05 -9.10 -15.85 -7.80 -3.60 -20.45 -0.70 -24.70 5.70 -4.45 6.75 -3.50 17.05 2.15 22.65 3.65 3.65 6.40 4.55 13.20 4.35 4.20 -0.15 6.15 -0.45 8.30 -1.30z m-644.85 -3.65 c0.55 -4.85 0.65 -4.70 -3.15 -6.65 -1.90 -0.95 -3.60 -1.90 -3.70 -2.10 -0.15 -0.25 0.10 -3.45 0.60 -7.15 l0.80 -6.75 2 -0.60 c1.10 -0.35 3 -0.90 4.25 -1.25 l2.25 -0.65 0.45 -3.40 c0.25 -1.85 0.35 -3.50 0.20 -3.65 -0.20 -0.20 -30.75 7.50 -36 9.10 -0.60 0.20 -0.90 1.05 -1.15 3.10 -0.20 1.55 -0.45 3.20 -0.55 3.65 -0.20 0.65 2.85 2.50 13.40 8.20 7.50 4.10 15 8.15 16.65 9.05 1.65 0.95 3.15 1.70 3.30 1.70 0.15 0 0.45 -1.20 0.65 -2.60z m6.25 -39.85 c0.30 -1.50 0.50 -2.80 0.35 -2.90 -0.10 -0.10 -5 -1.35 -10.85 -2.70 -5.90 -1.35 -10.90 -2.55 -11.15 -2.60 -0.25 -0.10 5.25 -2.10 12.20 -4.50 7 -2.40 12.90 -4.55 13.15 -4.80 0.60 -0.60 1.85 -6.25 1.45 -6.60 -0.35 -0.30 -33.05 -7.95 -34 -7.95 -0.45 0 -1.60 4.10 -1.60 5.70 0 0.40 3.60 1.45 10.65 3.05 5.80 1.30 10.90 2.55 11.30 2.75 0.40 0.20 -4.75 2.20 -12.50 4.80 l-13.15 4.45 -0.70 3.15 c-0.40 1.75 -0.60 3.30 -0.45 3.45 0.50 0.45 34.10 8.05 34.40 7.70 0.20 -0.15 0.60 -1.50 0.90 -3z m635.70 2.20 c4.40 -1.85 6.55 -4.95 6.45 -9.50 0 -2.70 -3.15 -17.95 -3.80 -18.60 -0.25 -0.30 -33.90 7.35 -34.35 7.80 -0.50 0.50 1.30 6.80 1.90 6.70 0.30 -0.05 3.05 -0.70 6.15 -1.40 3.10 -0.70 5.80 -1.25 6 -1.25 0.20 0 0.85 1.95 1.45 4.35 1.90 7.60 3.30 9.95 6.80 11.80 1.90 1.05 7.05 1.10 9.40 0.10z m-24.10 -29.80 c2.65 -0.90 4.95 -2.90 6 -5.15 0.80 -1.70 0.95 -3.30 0.95 -10 0 -6.70 0.15 -8.10 0.85 -8.90 2.55 -2.80 6.65 1.30 6.65 6.75 0 1.75 -0.30 2.45 -1.50 3.60 -1.60 1.55 -1.60 1.70 0.05 5.65 l0.95 2.15 1.90 -1.05 c4.15 -2.35 5.80 -7.35 4.35 -13 -1.40 -5.50 -3.65 -8.90 -6.75 -10.50 -3.90 -2 -9.05 -0.85 -11.70 2.65 -1.90 2.45 -2.40 5.65 -2 12.65 l0.35 6.10 -1.30 1.30 c-3.10 3.05 -7.50 0.10 -8.55 -5.80 -0.45 -2.40 0.60 -4.85 2.65 -6.45 l1.60 -1.25 -1.35 -3.10 c-0.75 -1.70 -1.50 -3.10 -1.70 -3.10 -0.85 0 -5 3.65 -6.05 5.35 -1 1.60 -1.20 2.55 -1.20 5.90 0 11.30 7.50 18.95 15.80 16.20z m-603.30 -4.30 l1.30 -3.30 -3.25 -2.95 -3.20 -2.90 2.65 -6.65 2.65 -6.60 4.40 -0.05 4.35 -0.10 1.40 -3.40 1.35 -3.45 -13.60 -0.15 c-7.45 -0.10 -16.10 0 -19.20 0.15 l-5.70 0.35 -1 2.35 c-1.95 4.45 -2.50 3.60 12.35 17.45 7.45 6.90 13.65 12.55 13.80 12.55 0.20 0.05 0.95 -1.45 1.70 -3.30z m17.35 -40.75 c4.45 -8.85 5.20 -11.35 4.40 -15.15 -1 -4.85 -4.70 -8.90 -10.80 -11.90 -8.15 -4.05 -14.90 -3.60 -19.55 1.25 -2.15 2.20 -9.65 16.50 -9.05 17.15 0.40 0.45 30.20 16.05 30.90 16.20 0.15 0.05 2 -3.40 4.10 -7.55z m566.70 -5.65 c2.95 -5.75 5.50 -10.65 5.65 -10.85 0.15 -0.20 4.25 0.65 9.05 1.85 4.80 1.25 8.95 2.25 9.15 2.25 0.60 0 -3.05 -6.55 -4.15 -7.55 -0.45 -0.40 -5.30 -1.75 -10.70 -2.95 -5.40 -1.20 -9.80 -2.30 -9.80 -2.45 0 -0.15 2.95 -1.95 6.50 -4 3.60 -2 6.50 -3.80 6.50 -4 0 -0.85 -3.10 -5.55 -3.65 -5.55 -0.35 0 -3.75 1.80 -7.60 4.05 -3.85 2.20 -10.55 6.05 -14.85 8.55 -4.35 2.45 -7.90 4.70 -7.90 4.90 0 0.35 2.70 5.30 3.20 5.85 0.05 0.05 2.05 -1 4.45 -2.35 2.35 -1.40 4.80 -2.50 5.40 -2.50 1.05 0 7.05 1.45 7.35 1.75 0.10 0.10 -1.85 3.80 -4.35 8.20 -2.50 4.45 -4.55 8.40 -4.55 8.80 0 0.70 0.65 1.90 3.35 6.20 0.40 0.65 0.95 0.95 1.15 0.75 0.20 -0.25 2.80 -5.15 5.80 -10.95z m-11 -31.50 c7.95 -5.10 14.55 -9.50 14.65 -9.80 0.05 -0.25 -0.65 -1.70 -1.65 -3.20 l-1.75 -2.70 -14.40 9.20 c-7.95 5.10 -14.60 9.55 -14.85 9.90 -0.45 0.65 2.40 5.85 3.20 5.85 0.20 0 6.90 -4.15 14.80 -9.25z m-541.05 6.70 c1.95 -0.75 3.70 -1.90 5.60 -3.80 5.75 -5.75 7.45 -13.20 4.40 -19.40 -1.90 -3.90 -6 -7.85 -10.65 -10.10 -3.45 -1.75 -4.15 -1.90 -7.80 -1.90 -3.10 0 -4.60 0.25 -6.45 1.10 -3.15 1.45 -7.20 5.70 -9.10 9.40 -1.25 2.55 -1.50 3.60 -1.50 6.75 0 4.70 1.60 8.40 5.15 11.95 6.35 6.35 13.65 8.50 20.35 6z m522.50 -9.65 c1.50 -1.30 1.85 -1.85 1.45 -2.35 -0.30 -0.40 -2.75 -3.45 -5.40 -6.85 -2.70 -3.35 -4.80 -6.35 -4.70 -6.55 0.10 -0.25 5.10 -4.30 11.15 -9.05 6.05 -4.75 11.05 -8.80 11.15 -9.05 0.20 -0.50 -3.45 -5.40 -4 -5.45 -0.20 0 -2.10 1.40 -4.25 3.10 -2.15 1.70 -8.15 6.45 -13.40 10.55 -5.20 4.10 -9.55 7.65 -9.65 7.90 -0.25 0.55 14.50 19.45 15.15 19.45 0.30 0 1.40 -0.75 2.50 -1.70z m-493.05 -25.30 c4.30 -4.95 7.80 -9.15 7.80 -9.35 0 -0.60 -3.15 -3.65 -3.80 -3.65 -0.35 0 -3.15 2.90 -6.25 6.50 -4.80 5.60 -5.70 6.40 -6.40 5.90 -0.45 -0.35 -5.05 -4.35 -10.30 -8.85 -5.20 -4.50 -9.90 -8.55 -10.40 -8.95 -0.80 -0.75 -1.05 -0.60 -3.10 1.70 -1.20 1.35 -2.20 2.60 -2.25 2.75 0 0.20 5.50 5.10 12.20 10.90 6.65 5.75 12.45 10.85 12.80 11.30 0.35 0.40 0.90 0.75 1.25 0.75 0.35 0 4.15 -4.05 8.45 -9z m473.55 -0.65 c1.65 -1.50 7.50 -6.55 13 -11.30 5.50 -4.75 10.05 -8.85 10.10 -9.20 0.10 -0.35 -0.85 -1.70 -2 -3 l-2.15 -2.45 -13.35 11.55 c-7.35 6.40 -13.35 11.70 -13.35 11.85 0 0.40 4.10 5.20 4.45 5.20 0.15 0 1.65 -1.20 3.30 -2.65z m-6.60 -14.25 l2.40 -1.05 -1.60 -2.90 c-0.90 -1.60 -1.70 -3 -1.80 -3.10 -0.05 -0.10 -1 0.20 -2.05 0.65 -3.95 1.80 -8.10 0.80 -10.10 -2.40 -2.25 -3.70 -1.80 -7.15 1.65 -11.70 2.35 -3.15 5.85 -5.75 8.75 -6.65 5.70 -1.70 11.30 3.80 9.75 9.65 l-0.50 1.90 2.45 1.55 c1.40 0.80 2.85 1.45 3.30 1.35 1.15 -0.25 2.20 -3.80 2 -6.90 -0.25 -3.65 -2.05 -7.10 -5.15 -9.90 -3.65 -3.30 -6.25 -4.35 -10.75 -4.35 -2.10 0 -4.50 0.30 -5.50 0.70 -4.70 1.90 -10.30 7.15 -12.80 12.05 -1.25 2.50 -1.55 8.75 -0.55 11.75 1.45 4.15 6.30 8.95 10.35 10.20 2.65 0.80 7.40 0.40 10.15 -0.85z m-448.50 -4.50 c1.35 -0.70 3.75 -2.70 5.35 -4.40 4.85 -5.20 5.65 -10 2.45 -14.85 -1.50 -2.25 -17.80 -19.85 -18.40 -19.85 -0.20 0 -1.40 1.10 -2.70 2.40 l-2.35 2.40 7.65 8 c11.10 11.65 11.70 12.55 10.05 15.95 -1.80 3.85 -6.35 5.75 -9.65 4 -0.80 -0.40 -5.10 -4.55 -9.55 -9.25 -4.50 -4.65 -8.40 -8.50 -8.70 -8.50 -0.65 0.05 -4.80 3.85 -4.80 4.45 0 0.75 17.45 18.45 19.30 19.60 3.65 2.25 7.20 2.25 11.35 0.05z m423.80 -22.80 c2.25 -2.85 4.05 -5.45 4.05 -5.70 0 -0.45 -11.10 -9.60 -11.65 -9.60 -0.10 0 -0.95 1.05 -1.85 2.35 l-1.65 2.30 1.25 1.05 c0.65 0.60 2.10 1.75 3.15 2.60 l1.95 1.50 -1.50 1.85 c-1.30 1.65 -1.65 1.80 -3.20 1.55 -0.95 -0.15 -3 -0.90 -4.50 -1.60 -7.35 -3.60 -7.80 -11.60 -1.05 -18.75 3.90 -4.20 8.35 -4.95 12.90 -2.35 3.25 1.85 4.80 4.50 4.55 7.80 l-0.15 2.25 2.90 1.55 c2.10 1.15 3.05 1.40 3.45 1 0.30 -0.30 0.65 -2.10 0.80 -4.05 0.20 -3.10 0.05 -3.85 -1.10 -6.20 -3.50 -7.20 -12.55 -11.95 -19.50 -10.30 -11.60 2.65 -19.05 16.70 -14 26.30 3.35 6.35 11.80 11.55 18.80 11.60 l2.35 0.05 4 -5.20z m-388.80 -6.70 c1 -0.70 1.85 -1.40 1.85 -1.60 0 -0.20 -1.25 -2.25 -2.75 -4.60 l-2.75 -4.25 0.80 -3.95 c0.45 -2.15 0.90 -4.05 0.95 -4.15 0.10 -0.05 3.95 1.80 8.55 4.15 4.60 2.35 8.55 4.30 8.80 4.30 0.85 0 7.40 -4.70 7.05 -5 -0.20 -0.20 -5.40 -2.55 -11.50 -5.30 -10.20 -4.55 -11.10 -5.05 -11.10 -6.20 0 -0.70 0.75 -4.85 1.65 -9.25 0.95 -4.40 1.60 -8.10 1.50 -8.20 -0.35 -0.35 -7.65 4.60 -7.90 5.35 -0.10 0.45 -0.95 5.20 -1.85 10.50 -0.95 5.25 -1.80 9.60 -1.95 9.60 -0.15 0 -2.05 -2.80 -4.20 -6.25 -2.20 -3.45 -4.15 -6.25 -4.35 -6.25 -0.20 0 -1.55 0.70 -2.95 1.60 -1.70 1.05 -2.50 1.85 -2.35 2.35 0.10 0.45 3.45 5.85 7.40 12.05 4 6.20 8.10 12.65 9.15 14.35 2.15 3.45 1.85 3.45 5.95 0.75z m355.70 -25.15 c1.45 -10 2.50 -18.45 2.40 -18.75 -0.25 -0.85 -5.60 -3.80 -6.45 -3.60 -0.75 0.15 -29.30 22.95 -29.30 23.40 0 0.45 5.35 3.50 6.10 3.50 0.35 0 1.95 -1.15 3.55 -2.50 1.60 -1.40 3.05 -2.50 3.20 -2.50 0.15 0 2.95 1.50 6.25 3.40 l6 3.35 -0.30 2.75 c-0.15 1.50 -0.40 3.55 -0.55 4.50 -0.30 1.70 -0.25 1.80 2.60 3.35 1.60 0.90 3.10 1.55 3.40 1.45 0.25 -0.05 1.65 -8.30 3.10 -18.35z m-328.80 8 l3.05 -1.50 -0.35 -3.85 c-0.20 -2.10 -0.40 -4.05 -0.45 -4.35 -0.05 -0.50 11.45 -6.70 12.45 -6.75 0.30 0 1.90 1.25 3.60 2.75 l3.10 2.75 3.25 -1.60 c1.80 -0.90 3.30 -1.75 3.30 -1.90 0 -0.40 -28.40 -25 -28.90 -25 -0.55 0 -6 2.95 -6.30 3.45 -0.15 0.25 3.30 35.60 3.70 37.45 0.05 0.25 0.70 0 3.55 -1.45z m374.45 -6.40 c2.05 -1.10 2.40 -2.05 1.05 -2.90 -0.70 -0.45 -1.30 -0.45 -2.45 -0.05 -2.95 1.15 -6.55 -1.60 -5.95 -4.55 0.20 -1 0.05 -1.65 -0.60 -2.25 -1.40 -1.25 -1.85 -0.95 -2.55 1.45 -0.55 2.05 -0.50 2.40 0.55 4.60 0.90 1.75 1.80 2.65 3.40 3.50 2.70 1.40 4.25 1.45 6.55 0.20z m-82.90 -7.90 c4.80 -2.60 8.80 -8.75 10.20 -15.90 1.35 -6.40 -0.60 -11.50 -5.55 -14.80 -2.15 -1.40 -15.70 -7.70 -15.95 -7.40 -0.45 0.55 -12.15 25.95 -14.60 31.75 -0.30 0.60 13.80 7.05 16.90 7.70 3.15 0.65 6.15 0.20 9 -1.35z m-255.90 -2.65 c1.25 -0.60 2.30 -1.25 2.30 -1.45 0 -0.20 -1.80 -4.95 -4 -10.55 -2.25 -5.55 -3.95 -10.25 -3.80 -10.35 0.10 -0.10 4.80 3.25 10.40 7.45 5.60 4.25 10.45 7.85 10.75 8.05 0.65 0.40 6.55 -1.70 6.80 -2.40 0.25 -0.75 -12.40 -32.40 -13.05 -32.65 -0.60 -0.20 -5.60 1.85 -5.60 2.35 0 0.15 1.90 5.10 4.20 10.95 2.30 5.80 4.10 10.60 3.95 10.60 -0.15 0 -5.05 -3.60 -10.95 -8 -5.90 -4.40 -11.05 -8 -11.45 -8 -1.10 0 -6.30 2.05 -6.15 2.40 0.35 0.75 10.75 27.10 12.45 31.50 0.55 1.35 1.20 1.40 4.15 0.10z m211.35 -12.25 c0.35 -1.50 0.50 -2.85 0.40 -2.90 -0.10 -0.10 -4.10 -1.30 -8.80 -2.60 -4.75 -1.35 -8.90 -2.60 -9.25 -2.80 -0.40 -0.25 -0.25 -1.50 0.60 -4.65 0.65 -2.40 1.30 -4.40 1.45 -4.55 0.20 -0.10 3.80 0.80 8.05 2.05 4.25 1.20 8.10 2.20 8.50 2.20 0.55 0 1 -0.80 1.45 -2.55 0.35 -1.35 0.55 -2.60 0.40 -2.75 -0.15 -0.15 -3.95 -1.30 -8.45 -2.55 -4.45 -1.25 -8.20 -2.30 -8.30 -2.40 -0.25 -0.20 1.95 -7.25 2.30 -7.45 0.20 -0.05 4.05 0.95 8.60 2.25 4.55 1.30 8.60 2.40 9.10 2.40 0.55 0.05 1 -0.70 1.40 -2.50 0.35 -1.40 0.45 -2.70 0.20 -2.90 -0.85 -0.70 -24.35 -7.10 -24.70 -6.70 -0.40 0.45 -9.50 32.35 -9.50 33.30 0 0.45 4.35 1.90 12.40 4.20 6.80 1.95 12.60 3.55 12.95 3.60 0.30 0 0.85 -1.20 1.20 -2.70z m-168.45 -1.85 c1.45 -0.30 2.85 -0.75 3.05 -0.95 0.25 -0.20 -0.30 -3.50 -1.20 -7.40 l-1.65 -7.05 1.70 -4.85 c0.90 -2.70 2.75 -7.90 4.05 -11.55 l2.35 -6.65 -2.05 0.35 c-1.15 0.15 -2.95 0.60 -4.05 0.90 l-1.95 0.55 -2.20 7 c-1.15 3.85 -2.30 7.35 -2.45 7.75 -0.20 0.55 -1.90 -0.95 -5.95 -5.20 l-5.65 -5.95 -3.70 0.90 c-2 0.50 -3.75 1 -3.90 1.10 -0.10 0.10 3.65 4.05 8.35 8.80 l8.55 8.60 1.65 7.15 c0.90 3.90 1.80 7.10 2 7.10 0.20 0 1.55 -0.25 3.05 -0.60z m133.75 -22.10 c4.60 -9.20 8.25 -16.85 8.15 -17 -0.15 -0.10 -1.80 -0.35 -3.75 -0.55 l-3.50 -0.30 -5.75 12.25 c-3.15 6.70 -5.90 12.05 -6.05 11.90 -0.20 -0.20 -1.50 -6.10 -2.95 -13.10 -1.45 -7 -2.75 -12.90 -2.95 -13.10 -0.30 -0.35 -7.15 -1.50 -7.35 -1.25 -0.15 0.15 7.85 36.55 8.10 36.80 0.15 0.15 4.85 0.90 6.60 1 0.95 0.05 2.10 -1.90 9.45 -16.65z m-95.60 15.50 c9.30 -2.45 13.95 -10.20 12.25 -20.55 -1.85 -11.35 -10.10 -17.45 -20.75 -15.25 -6.05 1.25 -9.65 4 -12.10 9.25 -1.15 2.60 -1.35 3.65 -1.35 7.50 0 8.70 3.10 14.90 8.95 17.90 3.75 1.90 8.55 2.35 13 1.15z m26.85 -13.90 l-0.20 -11.65 5.95 9 c3.25 4.95 6.60 10.05 7.40 11.35 l1.50 2.40 3.70 0 3.65 0 -0.30 -12.35 c-0.20 -6.85 -0.45 -14.95 -0.60 -18.05 l-0.30 -5.65 -3.10 0.15 -3.05 0.15 0.20 11.75 c0.10 8.05 0 11.60 -0.35 11.25 -0.30 -0.25 -3.60 -5.20 -7.35 -11 -3.75 -5.80 -7.10 -10.75 -7.40 -11.05 -0.40 -0.35 -1.75 -0.50 -3.70 -0.35 l-3.15 0.25 0 4.60 c0 2.50 0.15 10.45 0.35 17.70 l0.30 13.10 3.30 0 3.35 0 -0.20 -11.60z"/>
  <path d="M365.40 724.70 c-2.15 -1.15 -2.65 -3.50 -2.60 -12.20 0.05 -6.10 0.20 -8.15 0.90 -9.65 1.60 -3.55 5.60 -3.50 7.25 0.10 1.20 2.70 1.15 17.65 -0.05 19.90 -0.50 0.85 -1.05 1.70 -1.25 1.80 -1.20 0.65 -3.05 0.70 -4.25 0.05z"/>
  <path d="M360 667.70 c-36.95 -3.10 -70.55 -12.10 -102.25 -27.40 -39.25 -19 -73.40 -46.25 -100.30 -80.10 -33.05 -41.55 -53.35 -89.95 -60.15 -143.45 -2.90 -22.90 -2.60 -52.10 0.75 -75.50 7.25 -50.30 27.45 -97.30 59.15 -137.50 12.75 -16.20 31.45 -34.80 47.55 -47.30 45.95 -35.75 97.20 -55.65 155.50 -60.50 9.05 -0.75 34.50 -0.75 43.50 0 58.65 4.90 110.95 25.45 156.50 61.50 16.10 12.75 33.10 29.70 45.80 45.80 29.80 37.60 49 79.75 57.75 126.45 5.90 31.85 6.25 66.20 0.90 98.80 -13.80 84.45 -65.05 158.45 -139.65 201.75 -14.65 8.50 -37.75 18.85 -53.30 23.90 -17.25 5.60 -36.05 9.85 -53.75 12.10 -17.55 2.25 -41.35 2.85 -58 1.45z m79.15 -34.25 c7.55 -0.65 16.50 -2.10 23.10 -3.75 16.85 -4.25 38.95 -13.80 58.75 -25.45 7 -4.15 9.95 -6.30 19.75 -14.50 6.35 -5.30 13 -10.95 14.85 -12.60 3.75 -3.20 18.25 -18.65 23.45 -24.90 7.95 -9.60 19.45 -26.80 26.45 -39.75 8.10 -14.85 16.60 -34.55 18.60 -43 0.55 -2.35 2.10 -8.50 3.45 -13.75 1.30 -5.20 3.20 -14 4.20 -19.50 1 -5.50 2 -10.90 2.25 -12.05 0.25 -1.15 1.05 -5.85 1.70 -10.50 3.65 -24.55 2.10 -55.70 -4.25 -86.40 -3.45 -16.65 -7.35 -28.45 -15.85 -48.05 -6.10 -14 -8.85 -19.45 -13.35 -26.30 -2.45 -3.70 -5.70 -8.70 -7.25 -11.20 -1.55 -2.45 -6.75 -9.80 -11.55 -16.25 -9.25 -12.35 -19.25 -23.55 -29.75 -33.35 -7.25 -6.75 -9.55 -8.55 -18.95 -14.90 -4.40 -3 -9.70 -6.60 -11.75 -8 -14.55 -9.95 -18.45 -12.50 -24 -15.65 -12.20 -6.80 -40.10 -17.75 -56.25 -22.05 -28.60 -7.65 -69.35 -11.10 -89.50 -7.60 -6.35 1.05 -27.70 3.30 -28.05 2.90 -0.35 -0.30 1.55 -7.70 2.55 -10.05 0.45 -1.05 0.70 -2 0.60 -2.10 -0.35 -0.40 -4.85 1.20 -7.10 2.55 -1.25 0.70 -5.85 4.75 -10.25 8.95 -7.50 7.25 -8.15 7.75 -12.35 9.55 -2.40 1 -7.55 2.85 -11.40 4.10 -12.25 3.95 -19.90 7.25 -33.10 14.30 -16.40 8.80 -36.15 23 -48.45 34.85 -4.15 4 -10.90 10.40 -14.95 14.20 -8.25 7.85 -14.70 15.60 -18.60 22.40 -6.90 12.05 -7.85 19.05 -3.35 24.35 2.25 2.60 5.85 4.25 12.25 5.55 5.85 1.25 11.30 1.15 18.25 -0.25 5 -1.05 21.45 -6.40 39.20 -12.85 15.80 -5.75 36.65 -11.50 45.95 -12.75 5.75 -0.75 19.35 -0.75 21.05 0 1 0.45 3.20 4.50 4.80 8.70 0.70 1.85 1.80 4.30 2.45 5.40 1.30 2.25 2.75 7.35 2.75 9.65 0 1.35 -0.55 1.85 -6.10 5.50 -3.40 2.15 -8.30 5.20 -10.90 6.70 -17.50 10.05 -35.05 20.70 -56.15 33.95 -11.35 7.10 -13.55 8.25 -16.50 8.70 -5.05 0.70 -7.05 2.95 -11.70 13.35 -2.75 6.15 -5.50 10.55 -6.95 11.10 -1.80 0.70 -4.15 0.25 -5.65 -1 l-1.55 -1.30 0 -5.60 c0 -6.35 0.65 -10.65 2 -13.35 1.05 -2 3.65 -4.45 4.80 -4.45 1.05 0 9.20 -7.75 11.05 -10.55 3.90 -5.75 5 -12.60 2.75 -16.85 -1.75 -3.30 -5 -6.25 -9.15 -8.30 -8.70 -4.30 -13.40 -1.80 -18.40 9.70 -2.30 5.30 -4.40 8 -6.15 8 -0.60 0 -3 -0.50 -5.45 -1.10 -4.35 -1.05 -4.40 -1.05 -6.45 -0.15 -2.05 0.95 -5.35 4.75 -9.25 10.65 -1.05 1.60 -2.30 2.60 -4.75 3.85 -4.30 2.15 -7.10 2.85 -18.85 4.70 -14.10 2.25 -20.60 4.10 -23.85 7 -1.35 1.20 -3.10 4.90 -3.85 8.30 -1.05 4.45 -0.85 22.80 0.25 30.50 1.95 13.65 4.50 22.40 7.50 25.65 2.85 3.15 8.45 4.60 17.95 4.60 7.10 0 13.60 0.70 14.70 1.60 0.35 0.30 1.70 2.25 2.95 4.35 1.85 2.95 2.35 4.25 2.35 5.85 -0.10 2.85 -2.45 10.30 -4.45 13.95 -1.55 2.80 -2.05 3.25 -4.60 4.40 -4.55 2 -10.75 2.60 -19.05 1.85 -3.80 -0.35 -7.70 -0.50 -8.60 -0.30 -0.95 0.15 -3.05 -0.05 -4.70 -0.45 -3.10 -0.75 -8.65 -0.95 -10.60 -0.45 -1.25 0.35 -1.55 1.80 -0.50 2.55 0.30 0.25 3.35 1.10 6.70 1.85 5.35 1.20 6.35 1.30 8.25 0.75 3.20 -0.85 26.45 -0.20 28.45 0.80 1.65 0.85 2.95 3.20 4.15 7.40 0.45 1.55 0.95 2.85 1.10 2.85 1.15 0 3.40 -1.90 4.25 -3.60 0.95 -1.90 1.05 -2.65 0.80 -6.80 -0.25 -4.65 -0.25 -4.70 1.35 -7.25 0.90 -1.45 1.95 -3.45 2.25 -4.45 l0.65 -1.90 4.55 0.05 c7.15 0.05 9.45 0.50 10.15 1.85 1 2 -0.10 4.90 -4.85 13.35 -7.80 13.75 -14.95 29.60 -22.95 50.75 -2.55 6.75 -6 15.40 -7.65 19.25 -1.60 3.85 -3.90 9.70 -5.10 13 -1.20 3.30 -2.30 6.40 -2.50 6.85 -0.25 0.65 0.10 1.05 1.40 1.70 0.95 0.45 2.10 0.70 2.45 0.55 0.40 -0.15 2.85 -5.85 5.40 -12.70 4.80 -12.80 7.65 -19.90 17.85 -44.15 3.30 -7.85 7.40 -18.05 9.15 -22.75 4.75 -12.90 6.90 -16.65 8.90 -15.45 0.45 0.30 2 2.65 3.35 5.25 3.30 6.20 5.70 9.95 6.45 9.95 0.30 0 1.45 -0.55 2.55 -1.25 5.25 -3.20 5.80 -3.35 8.95 -3.15 2.40 0.20 4.35 0.85 9.25 3.15 l6.15 2.95 -0.30 6.30 c-0.15 3.45 -0.40 8.85 -0.60 12 -0.40 7.05 0.20 9.85 3.90 17.75 1.40 3.05 3.95 8.90 5.75 13 l3.20 7.50 -0.10 8.10 -0.10 8.05 3.70 5.90 c3.95 6.20 8.15 11.15 11.40 13.45 6.85 4.70 17.70 5.05 18.85 0.55 0.70 -2.90 -1.10 -5.45 -8.85 -12.55 -2.65 -2.45 -3.65 -3.85 -5.35 -7.45 -1.20 -2.40 -3.10 -6.05 -4.30 -8 -5.25 -8.65 -8.30 -16.05 -10.15 -24.80 -1.25 -5.80 -1.25 -26 0 -36.35 0.45 -3.90 0.85 -7.75 0.85 -8.55 0 -2 -5.25 -8.90 -12.35 -16.20 -6.15 -6.30 -6.55 -7.20 -4.85 -10.50 0.75 -1.50 0.80 -1.50 3.60 -1.15 5.15 0.60 9.30 1.75 13.40 3.75 5.60 2.70 6.10 3.70 5.25 10.35 -0.50 3.80 -0.50 5.70 -0.05 8.15 1.05 6.15 4.45 18.30 6.15 22.30 3.35 7.65 3.55 12.10 0.85 21 -2.25 7.50 -2 10.25 1.10 10.90 4.10 0.85 16.55 1.85 26.30 2.15 11.85 0.35 11.60 0.40 11.60 -2.85 0 -1.65 -0.20 -1.80 -2.65 -2.85 -1.40 -0.65 -4.25 -1.35 -6.25 -1.65 -2 -0.25 -4.45 -0.85 -5.45 -1.25 -6.10 -2.55 -11.45 -10.70 -14.15 -21.65 -2.40 -9.60 -3.15 -25.85 -1.80 -38.35 0.40 -3.55 0.85 -9.45 1.05 -13.05 l0.35 -6.55 -3.65 -1.50 c-2.05 -0.85 -7.50 -3.10 -12.20 -5.05 -4.65 -1.95 -10.75 -4.55 -13.50 -5.85 -2.75 -1.30 -8.25 -3.60 -12.25 -5.10 -11.45 -4.30 -13 -5.60 -12.25 -10.25 0.50 -2.80 5.50 -16.30 9.05 -24.35 2.65 -6 2.95 -6.45 6.85 -10.15 2.25 -2.15 4.45 -4 4.90 -4.15 0.90 -0.30 1.45 -2.30 1.45 -5.45 0 -2.80 1.20 -7.05 2.55 -9 0.60 -0.90 2.95 -2.75 5.15 -4.15 20.40 -12.60 33.85 -20.80 40.55 -24.70 4.40 -2.55 12.95 -7.75 19 -11.60 6.05 -3.85 13.05 -8.20 15.50 -9.70 4.95 -2.95 5.05 -3 6.90 -4.30 1.75 -1.25 2.95 -0.80 6.60 2.60 7.60 7.20 12.25 10.65 17.50 13.10 3.75 1.75 8.25 3.05 8.25 2.40 0 -0.25 -1.10 -2.85 -2.40 -5.85 -3.05 -6.70 -9.40 -23.55 -10.10 -26.75 -2.25 -10.15 -0.35 -22.15 4.75 -30.15 6.25 -9.80 15.40 -16.70 25.25 -18.95 7.60 -1.75 20.10 -0.95 28.20 1.85 9.45 3.25 13.15 6.55 18.30 16.45 5.40 10.40 6.45 11 23 12.70 15.15 1.55 43.45 9.40 55.25 15.35 5.40 2.70 11.95 7.45 21.25 15.45 10.10 8.65 17.25 15.85 34.45 34.70 11.20 12.30 15.85 17.80 22.40 26.70 9.95 13.50 12.10 16.75 14.90 22.70 2.45 5.15 3.50 9.65 3.15 13.30 -0.65 6.50 -9.50 19.75 -18.95 28.40 -5.10 4.65 -7.45 5.95 -12 6.70 -1.75 0.25 -3.70 0.60 -4.25 0.70 -0.75 0.15 -1.40 1.10 -2.20 3 -1.20 2.95 -4.35 6.25 -5.95 6.25 -0.75 0 -1.10 -0.55 -1.50 -2.50 -0.30 -1.40 -0.55 -3.25 -0.55 -4.15 -0.05 -2.30 -0.75 -3.25 -5.25 -7.20 -15.35 -13.45 -18.10 -15.35 -23.30 -15.95 -2.40 -0.25 -3.25 -0.15 -5.50 0.90 -5.05 2.30 -7.95 5.85 -7.95 9.65 0 4.40 4.20 11.85 9.95 17.70 3.80 3.85 7.35 5.90 11.30 6.55 1.45 0.25 4.15 1.05 6 1.75 4.45 1.80 6.70 2.05 8.70 1.05 l1.60 -0.85 0.85 1.90 c0.60 1.45 0.85 3.35 0.85 7.70 0 5.70 0 5.80 -1.95 9.50 -2.05 4 -4.25 6.70 -10.60 13.50 -5.20 5.45 -6.40 7.35 -8.60 13.90 l-1.85 5.30 -2.75 0.25 -2.75 0.25 -0.15 9 c-0.10 4.95 -0.25 9.10 -0.35 9.20 -0.55 0.50 -5.05 -2.85 -7.85 -5.90 -3.60 -3.90 -5.25 -6.75 -8.60 -14.95 -3.75 -9.10 -8.55 -17.65 -13.40 -24 -4.75 -6.20 -6.40 -7.85 -9.70 -9.85 -1.70 -1.05 -13.90 -6.20 -24.30 -10.30 -4.80 -1.90 -10.30 -2.45 -24.35 -2.45 -14.80 0 -22.55 0.55 -29.40 1.95 -13.35 2.80 -29.10 11.50 -47.15 26.10 -13.45 10.85 -20.25 21.35 -27.55 42.30 -9.50 27.50 -10.45 51.50 -2.85 74.65 7.45 22.85 17.45 38 34.15 51.75 17.85 14.70 28.80 20 51.30 25 10.30 2.30 16.65 3.25 23.95 3.75 3.15 0.20 6.25 0.40 6.90 0.40 0.65 0.05 3.90 -0.15 7.25 -0.45z m49.85 -347.75 c0 -0.75 -2.70 -9.60 -4 -13.25 -2.45 -6.60 -5.05 -8.60 -13.20 -10.25 -3.40 -0.70 -6.05 -0.80 -16.55 -0.55 -12.95 0.30 -20 1.10 -25.80 2.85 -3.40 1 -5.75 2.75 -4.40 3.25 0.40 0.10 14.30 4.05 30.95 8.75 16.65 4.70 30.70 8.75 31.25 9 1.20 0.50 1.75 0.60 1.75 0.20z m-107.50 -6.45 c0 -0.10 -0.65 -1.85 -1.45 -3.85 -3.40 -8.65 -4.65 -13.45 -4.75 -18.15 -0.10 -8.25 2.25 -13.70 8.45 -20 4.40 -4.45 6.95 -5.95 13.40 -8 5.70 -1.75 5.95 -2.05 4.60 -5.50 -1.30 -3.45 -3.45 -6 -6.60 -7.90 -9 -5.45 -19.20 -4.10 -26.10 3.45 -3.15 3.45 -5.25 7.85 -6.90 14.35 -1.70 6.65 -1.90 16.90 -0.45 23.10 2.40 10.45 9.60 19.70 17.05 22.05 2.25 0.70 2.75 0.80 2.75 0.45z"/>
  <path d="M418.15 527.95 c-2.05 -1 -4.15 -3.50 -5.10 -6.10 -2.05 -5.40 2.40 -11.85 9.05 -13.10 2.40 -0.45 5.85 1.10 7.50 3.30 3.50 4.70 3.20 10.60 -0.70 14.30 -3 2.85 -7 3.45 -10.75 1.60z"/>
  <path d="M200.75 225.75 c-1.50 -1.50 -1.60 -3.20 -0.20 -4.95 2.15 -2.70 6.45 -1.15 6.45 2.35 0 3.45 -3.85 5.05 -6.25 2.60z"/>
  <path d="M106.85 567.70 l3.85 -5.75 0.90 1.15 c0.50 0.65 1.80 2.45 2.90 4 l2.05 2.85 -1.90 0.50 c-1.05 0.30 -3.90 1.10 -6.40 1.80 -2.45 0.65 -4.65 1.25 -4.90 1.25 -0.20 0 1.40 -2.60 3.50 -5.80z"/>
  <path d="M653.75 579.75 c-1.95 -1.90 -1.65 -3.65 1.55 -8.35 1.55 -2.30 3 -4.35 3.20 -4.55 0.55 -0.60 7.05 4.15 6.65 4.85 -0.95 1.60 -5.95 8.15 -6.60 8.65 -1.30 1 -3.50 0.75 -4.80 -0.60z"/>
  <path d="M640.50 572 c-1.40 -1.30 -1.60 -1.75 -1.35 -3.25 0.25 -1.50 5.75 -10.30 6.85 -11 0.20 -0.15 2.10 1 4.20 2.55 l3.80 2.75 -2.80 3.85 c-1.55 2.10 -3.45 4.45 -4.25 5.25 -2.05 1.90 -4.35 1.85 -6.45 -0.15z"/>
  <path d="M80.60 541.35 c-1.45 -2.80 -2.60 -5.65 -2.60 -6.25 0 -0.65 0.65 -1.85 1.45 -2.65 1.80 -1.75 4.30 -1.95 5.90 -0.45 1.15 1.05 5.65 8.95 5.65 9.90 0 0.50 -2.25 1.80 -7.50 4.50 -0.15 0.05 -1.45 -2.20 -2.90 -5.05z"/>
  <path d="M66.50 503.80 c0 -0.30 9.60 -8.80 10 -8.80 0.35 0 3.50 7.65 3.50 8.55 0 0.25 -2.90 0.45 -6.75 0.45 -3.70 0 -6.75 -0.10 -6.75 -0.20z"/>
  <path d="M52.75 472.40 c-0.95 -2.70 -2.15 -10.65 -1.75 -11.65 0.95 -2.50 4.60 -3.05 6.50 -1.05 1.20 1.30 3.80 10.75 3.10 11.35 -0.30 0.25 -6.60 1.95 -7.35 1.95 -0.15 0 -0.40 -0.30 -0.50 -0.60z"/>
  <path d="M66.80 469.55 c-0.75 -1.15 -2.35 -10.90 -2.10 -12.30 0.40 -2.10 2.20 -3.45 4.60 -3.45 2.80 0 3.90 1.55 5.40 7.45 0.70 2.90 1.30 5.50 1.30 5.90 0 0.65 -8.85 3 -9.20 2.40z"/>
  <path d="M715.15 389.30 c-1.40 -1.20 -1.40 -1.25 -1.40 -7.15 l0 -5.90 4.65 -0.15 4.60 -0.15 -0.05 2.90 c-0.05 6.10 -0.70 9.75 -1.90 10.70 -1.65 1.35 -4.20 1.20 -5.90 -0.25z"/>
  <path d="M705.75 352.75 c-0.25 -0.10 -1.35 -0.30 -2.40 -0.50 -2.25 -0.35 -5.25 -2.85 -6.15 -5.10 -1 -2.40 -0.90 -6.60 0.25 -8.45 2.15 -3.55 6.90 -5.70 12.70 -5.70 5.30 0 8.85 2.40 10.15 6.80 1.15 4.05 -0.20 8.35 -3.35 10.45 -2.70 1.75 -9.10 3.20 -11.20 2.50z"/>
  <path d="M52.40 340.10 c-2.95 -1.55 -5.40 -3 -5.40 -3.15 0 -0.15 2.65 -0.95 5.90 -1.70 3.20 -0.75 6.15 -1.50 6.55 -1.65 0.55 -0.20 0.65 0.25 0.35 2.45 -0.75 6 -0.95 6.95 -1.50 6.90 -0.30 0 -2.95 -1.30 -5.90 -2.85z"/>
  <path d="M706.65 310.20 c-1.70 -0.85 -2.50 -2.45 -3.85 -7.85 -0.55 -2.15 -0.55 -2.95 -0.15 -3.05 2.05 -0.55 8.25 -1.80 8.90 -1.80 0.65 0 1.05 1 1.70 4.50 0.90 4.95 0.80 5.80 -0.90 7.40 -1.55 1.50 -3.75 1.80 -5.70 0.80z"/>
  <path d="M71 265.05 l-4.75 -4.50 6.55 -0.05 c3.60 0 6.65 0.10 6.80 0.25 0.35 0.35 -2.90 8.45 -3.45 8.60 -0.25 0.10 -2.55 -1.85 -5.15 -4.30z"/>
  <path d="M87.25 235.60 c-5.20 -2.65 -9.75 -5.05 -10.10 -5.25 -0.45 -0.30 -0.15 -1.30 1.20 -3.75 3.15 -5.85 5.25 -7.40 9.20 -6.95 4.30 0.50 11.60 4.65 13.45 7.55 0.55 0.95 1 2.45 1 3.40 0 2 -3.65 9.90 -4.60 9.90 -0.35 -0.05 -4.90 -2.20 -10.15 -4.90z"/>
  <path d="M111.50 205.55 c-3.95 -0.80 -9.30 -4.75 -11 -8.10 -3.35 -6.55 2.30 -14.75 9.45 -13.70 6.45 0.95 13.05 7.35 13.05 12.60 -0.05 3.80 -2.50 7.35 -6.10 8.90 -2 0.80 -2.65 0.85 -5.40 0.30z"/>
  <path d="M545.40 100.70 c-2.15 -1.25 -3.90 -2.45 -3.85 -2.60 0.05 -0.45 10 -8.75 10.20 -8.50 0.30 0.25 -1.90 13.40 -2.20 13.40 -0.15 -0.05 -2.05 -1.05 -4.15 -2.30z"/>
  <path d="M229.45 94.30 c-0.25 -0.20 -1.65 -13.30 -1.45 -13.30 0.50 0 9.60 8.35 9.60 8.80 0 0.35 -7.90 4.65 -8.15 4.50z"/>
  <path d="M506.80 90.25 c-2.15 -0.90 -4 -1.80 -4.10 -1.90 -0.30 -0.30 9.20 -21.05 9.75 -21.25 0.80 -0.25 7.25 2.90 8.70 4.30 1.85 1.80 2.50 4.40 1.85 7.45 -0.90 3.85 -3.75 9.30 -6 11.35 -2.65 2.40 -4.85 2.40 -10.20 0.05z"/>
  <path d="M335.70 66.55 c-5.75 -3.50 -7.65 -15.30 -3.30 -20.20 1.40 -1.60 4.65 -2.85 7.55 -2.85 4.90 0 7.85 2.70 9.35 8.65 1.60 6.10 -0.05 11.95 -4.05 14.20 -2.60 1.50 -7.30 1.60 -9.55 0.20z"/>
 </g>
</svg>